<svg width="172" height="34" viewBox="0 0 172 34" fill="none" xmlns="http://www.w3.org/2000/svg">
<g clip-path="url(#clip0_86_127)">
<path d="M69.9134 12.7188V13.094C69.9134 12.9648 69.9134 12.8484 69.9004 12.7188H69.9134Z" fill="#3E3E3E"/>
<path d="M103.591 0.699349V33.1988H93.9263C93.6805 33.1988 93.4474 33.1861 93.2405 33.1602C91.6231 33.0179 90.7045 32.2286 90.2645 28.9942C88.3887 30.715 86.3057 32.3194 83.6014 33.1602L83.5885 33.1731C83.524 33.1861 83.4591 33.1988 83.3816 33.225C82.2043 33.5742 80.8975 33.7811 79.4484 33.7811C78.038 33.7811 76.6926 33.6131 75.4764 33.225C73.2639 32.5133 71.5431 31.0256 70.6245 28.4507C70.547 28.5285 70.4176 28.632 70.2364 28.7873C70.133 28.8907 70.0165 28.9812 69.9128 29.0849C68.0627 30.7668 66.0055 32.3321 63.3405 33.1731C63.2757 33.1861 63.2109 33.1988 63.1334 33.225C61.943 33.5742 60.6363 33.7811 59.2001 33.7811C57.777 33.7811 56.4313 33.6131 55.228 33.225C52.0584 32.2156 49.8458 29.654 49.6648 24.5049V13.1456C49.6648 12.9902 49.6648 12.8609 49.6518 12.7185C49.5225 10.7392 48.3838 10.3122 46.0163 10.3122C44.9813 10.3122 43.9201 10.4931 43.1309 10.6744V33.225H29.3906V0.699349H39.1201C41.1513 0.699349 42.3289 1.3719 42.8076 5.25323C44.6188 3.45517 46.8442 1.77326 49.6518 0.841692C49.7939 0.789835 49.9366 0.737977 50.0916 0.699349C51.3983 0.311214 52.8347 0.078125 54.4002 0.078125C55.849 0.078125 57.1947 0.259623 58.385 0.699349C61.2313 1.70844 63.1593 4.12799 63.3276 8.83721V20.9601C63.3276 21.1151 63.3276 21.2704 63.3405 21.3998C63.4958 23.4828 64.7764 23.9225 67.1443 23.9225C68.0627 23.9225 69.1238 23.7286 69.9128 23.4957V0.699349H83.6014V21.4773C83.7438 23.0687 84.5849 23.6637 86.0856 23.845C86.4869 23.8969 86.9137 23.9225 87.3924 23.9225C88.3239 23.9225 89.3719 23.7286 90.174 23.4957V0.699349H103.591Z" fill="#3E3E3E"/>
<path d="M142.529 0.694336V33.2266H132.856C130.761 33.2266 129.652 32.6723 129.159 28.7905C126.386 31.3783 123.121 33.7812 118.13 33.7812C112.831 33.7812 108.58 31.5016 108.58 23.7997V0.694336H122.258V20.9654C122.258 23.4299 123.552 23.9228 126.078 23.9228C127.003 23.9228 128.05 23.7379 128.85 23.4918V0.694336H142.529Z" fill="#3E3E3E"/>
</g>
<defs>
<clipPath id="clip0_86_127">
<rect width="113.748" height="33.7031" fill="white" transform="translate(29.3906 0.078125)"/>
</clipPath>
</defs>
</svg>
