<svg width="124" height="38" viewBox="0 0 124 38" fill="none" xmlns="http://www.w3.org/2000/svg">
<g clip-path="url(#clip0_86_114)">
<path d="M49.6416 15.1765V9.47302H45.8065V15.1765H41.1191V0H45.8065V6.09684H49.6416V0H54.329V15.1765H49.6416Z" fill="#3E3E3E"/>
<path d="M66.0623 14.6521C65.2428 15.111 64.2267 15.3732 62.6861 15.3732C56.9498 15.3732 55.6387 12.5542 55.6387 7.76852V0H60.326V7.76852C60.326 11.7347 61.2766 11.997 62.5878 11.997C63.4072 11.9642 63.9973 11.8987 64.4234 11.702C65.1446 11.2431 65.4068 10.1614 65.4068 7.76852V0H68.7501V7.76852C68.7501 10.063 68.7502 13.2426 66.0623 14.6521Z" fill="#3E3E3E"/>
<path d="M80.1893 15.1765L73.404 6.39184V15.1765H70.0605V0H74.0596L79.3367 6.78519V0H82.713V15.1765H80.1893Z" fill="#3E3E3E"/>
<path d="M92.5807 15.1765H87.8938V3.34342H84.0586V0H96.481V3.34342H92.6133V15.1765H92.5807Z" fill="#3E3E3E"/>
<path d="M107.43 15.1765H97.7598V0H108.806L107.462 3.34342H102.448V6.12961H106.611L105.299 9.47302H102.448V11.8003H108.774L107.43 15.1765Z" fill="#3E3E3E"/>
<path d="M116.606 0C118.901 0 120.343 0.885024 121.163 1.60615C122.244 2.62229 122.868 3.96622 122.868 5.37571C122.868 6.75241 122.31 8.06359 121.262 8.98138C121.031 9.17802 120.802 9.34195 120.573 9.50581L123.523 15.1437H118.377L115.886 10.4564H114.771V15.1765H110.084V0H116.606ZM118.081 6.65407C118.344 6.35907 118.508 5.90016 118.508 5.44126C118.508 3.76954 117.262 3.34342 116.606 3.34342H114.771V7.11297H116.902C117.459 7.11297 117.852 6.98186 118.081 6.65407Z" fill="#3E3E3E"/>
<path d="M50.9855 34.6467H46.2982V28.3204L41.1191 19.5029H46.2327L49.0844 24.8459L51.9689 19.5029H55.804L51.0183 28.3532V34.6467H50.9855Z" fill="#3E3E3E"/>
<path d="M66.7518 34.6472H57.082V19.4707H68.1284L66.7846 22.8141H61.7694V25.6003H65.9323L64.6211 28.9437H61.7694V31.271H68.0957L66.7518 34.6472Z" fill="#3E3E3E"/>
<path d="M79.4691 31.8933H73.1753L71.8642 34.6795H68.1602L75.3059 19.5029H78.8134L85.828 34.6795H80.7798L79.4691 31.8933ZM74.7159 28.5171H77.8957L76.3223 25.1409L74.7159 28.5171Z" fill="#3E3E3E"/>
<path d="M97.2363 34.6472L90.4504 25.8625V34.6472H87.1074V19.4707H91.1061L96.3837 26.2559V19.4707H99.76V34.6472H97.2363Z" fill="#3E3E3E"/>
<path d="M110.937 34.6467H106.249V28.3204L101.07 19.5029H106.184L109.036 24.8459L111.92 19.5029H115.755L110.97 28.3532V34.6467H110.937Z" fill="#3E3E3E"/>
<path d="M31.9409 0V3.14675H28.7941V34.7127H6.70126V37.8594H3.55451V25.2396H19.321V15.7665H12.9948V22.0928H3.55451V3.14675H0.375V0H12.9948V6.29351H19.321V0H31.9409Z" fill="#3E3E3E"/>
</g>
<defs>
<clipPath id="clip0_86_114">
<rect width="123.422" height="37.8594" fill="white" transform="translate(0.375)"/>
</clipPath>
</defs>
</svg>
