<svg width="145" height="36" viewBox="0 0 145 36" fill="none" xmlns="http://www.w3.org/2000/svg">
<g clip-path="url(#clip0_86_138)">
<path d="M17.8681 11.0962L14.1575 14.8068L3.7638 4.41309L0.228516 7.9484L10.6222 18.3421L0.228516 28.7359L3.7638 32.2712L14.1575 21.8767L24.5513 32.2704L28.0866 28.7351L17.6928 18.3421L21.4034 14.6308C19.8449 13.9066 18.5926 12.6546 17.8681 11.0962Z" fill="#3E3E3E"/>
<path d="M24.454 0.789063C23.2355 0.789466 22.0367 1.09659 20.9681 1.68212C19.8995 2.26765 18.9955 3.11275 18.3394 4.13952C17.6833 5.1663 17.2962 6.34171 17.2139 7.55741C17.1315 8.7731 17.3564 9.99001 17.868 11.0959L24.5512 4.41273L28.0865 7.94802L21.404 14.6305C22.3891 15.0869 23.464 15.3164 24.5497 15.3023C25.6353 15.2881 26.7038 15.0305 27.6767 14.5485C28.6495 14.0665 29.5017 13.3724 30.1707 12.5172C30.8396 11.6621 31.3081 10.6678 31.5418 9.60757C31.7754 8.54732 31.7681 7.44816 31.5206 6.39108C31.273 5.334 30.7914 4.34595 30.1112 3.49972C29.4311 2.65349 28.5697 1.97065 27.5906 1.50152C26.6115 1.0324 25.5396 0.788928 24.454 0.789063Z" fill="#3E3E3E"/>
<path d="M45.2964 8.41721H51.2938V13.5455H53.6521V1.13672H51.2938V6.30707H45.2964V1.13672H42.9395V13.5455H45.2964V8.41721Z" fill="#3E3E3E"/>
<path d="M60.4545 3.57617C57.4348 3.57617 55.5117 5.45871 55.5117 8.66328C55.5117 11.8488 57.3317 13.8138 60.4545 13.8138C63.5361 13.8138 65.3561 11.8488 65.3561 8.66328C65.3561 5.45945 63.433 3.57617 60.4545 3.57617ZM60.4339 11.8893C58.5727 11.8893 57.7449 10.6497 57.7449 8.64271C57.7449 6.63567 58.6346 5.45871 60.4339 5.45871C62.2332 5.45871 63.1428 6.63715 63.1428 8.64271C63.1428 10.6482 62.2744 11.89 60.4339 11.89V11.8893Z" fill="#3E3E3E"/>
<path d="M75.8186 13.5453V3.82324H73.5848V9.32429C73.5848 10.7922 72.6126 11.7857 71.1036 11.7857C69.7782 11.7857 69.2627 10.9159 69.2627 9.7382V3.82619H67.0293V10.3193C67.0293 12.4287 68.0015 13.8149 70.0491 13.8149C71.6623 13.8149 72.9033 12.7837 73.4367 10.9808H73.6438V13.5453H75.8186Z" fill="#3E3E3E"/>
<path d="M82.2299 7.81708C80.389 7.48635 79.9755 7.00688 79.9755 6.3278C79.9755 5.60381 80.5542 5.17 81.6917 5.17C82.8504 5.17 83.429 5.62443 83.6978 6.82348L85.7039 6.39041C85.3111 4.67285 84.4012 3.57617 81.7335 3.57617C79.148 3.57617 77.8659 4.69273 77.8659 6.4486C77.8659 8.06157 78.7764 8.93142 81.3612 9.44695C83.285 9.79901 83.8226 10.171 83.8226 10.9369C83.8226 11.764 83.2021 12.178 82.0228 12.178C80.4514 12.178 79.7685 11.4333 79.4586 10.255L77.4531 10.6674C77.8042 12.5286 78.8374 13.8116 81.9817 13.8116C84.7742 13.8116 85.9727 12.653 85.9727 10.8545C85.9727 9.32689 85.104 8.35399 82.2299 7.81708Z" fill="#3E3E3E"/>
<path d="M88.246 10.5873C88.246 12.4073 89.1552 13.814 91.2861 13.814C92.2576 13.814 92.754 13.6896 93.478 13.462L93.21 11.4771C92.7335 11.6244 92.2995 11.7246 91.8024 11.7246C90.8308 11.7246 90.4764 11.2289 90.4764 10.2766V5.62398H93.3306V3.8254H90.4764V1.19824H88.2433V3.8254H86.8789V5.62398H88.2433L88.246 10.5873Z" fill="#3E3E3E"/>
<path d="M104.336 8.66328C104.336 5.45871 102.413 3.57617 99.4343 3.57617C96.4141 3.57617 94.4902 5.45871 94.4902 8.66328C94.4902 11.8488 96.3106 13.8138 99.4343 13.8138C102.516 13.813 104.336 11.8488 104.336 8.66328ZM96.7247 8.64271C96.7247 6.63714 97.6139 5.45871 99.4137 5.45871C101.213 5.45871 102.123 6.63714 102.123 8.64271C102.123 10.6482 101.254 11.8893 99.4137 11.8893C97.5515 11.8893 96.7247 10.6497 96.7247 8.64271Z" fill="#3E3E3E"/>
<path d="M108.306 8.04314C108.306 6.57527 109.299 5.58171 110.787 5.58171C112.131 5.58171 112.649 6.45081 112.649 7.62923V13.5442H114.858V7.05033C114.858 4.94168 113.886 3.57617 111.859 3.57617C110.225 3.57617 108.987 4.58962 108.446 6.38968H108.26V3.82512H106.088V13.5471H108.302L108.306 8.04314Z" fill="#3E3E3E"/>
<path d="M42.9395 31.9264H51.8734V29.8789H45.2964V26.6529H51.2739V24.6261H45.2964V21.5658H51.8941V19.5176H42.9395V31.9264Z" fill="#3E3E3E"/>
<path d="M62.6473 22.4341V22.208H60.3103L58.2009 26.2191H57.9527L55.6982 22.208H53.1756V22.4341L56.2779 26.8812L53.1543 31.6995V31.9272H55.5951L57.6839 27.8321H57.9733L60.2278 31.9272H62.7297V31.6995L59.6276 27.1921L62.6473 22.4341Z" fill="#3E3E3E"/>
<path d="M69.9672 21.958C68.2097 21.958 67.1337 23.0539 66.6167 24.7303H66.4693V22.2099H64.2598V35.0702H66.4693V29.3423H66.6167C67.0924 31.0363 68.2296 32.1963 70.0049 32.1963C72.1975 32.1963 73.54 30.3963 73.54 27.0879C73.54 23.7794 72.2627 21.958 69.9672 21.958ZM68.9538 30.2313C67.4644 30.2313 66.4723 29.1148 66.4723 27.4804V26.7358C66.4723 25.0418 67.4445 23.9643 68.9765 23.9643C70.6103 23.9643 71.3549 24.9777 71.3549 27.0879C71.3535 29.1759 70.5877 30.2313 68.9538 30.2313Z" fill="#3E3E3E"/>
<path d="M79.6868 21.958C76.6666 21.958 74.7441 23.8413 74.7441 27.0459C74.7441 30.2313 76.5638 32.1963 79.6868 32.1963C82.768 32.1963 84.5883 30.2313 84.5883 27.0459C84.5883 23.8413 82.6652 21.958 79.6868 21.958ZM79.6662 30.2718C77.8048 30.2718 76.9772 29.0323 76.9772 27.0253C76.9772 25.0182 77.8665 23.8413 79.6662 23.8413C81.4653 23.8413 82.3751 25.0197 82.3751 27.0253C82.3751 29.0308 81.5065 30.2718 79.6662 30.2718Z" fill="#3E3E3E"/>
<path d="M92.1133 21.958C90.4794 21.958 89.2412 22.9714 88.7009 24.7715H88.5151V22.2099H86.3438V31.9319H88.557V26.4257C88.557 24.9578 89.5491 23.9643 91.0382 23.9643C92.3827 23.9643 92.899 24.8334 92.899 26.0118V31.9268H95.1122V25.4329C95.1122 23.3235 94.14 21.958 92.1133 21.958Z" fill="#3E3E3E"/>
<path d="M101.667 21.958C98.6271 21.958 96.7656 23.9024 96.7656 27.191C96.7656 30.4383 98.6888 32.175 101.667 32.175C104.273 32.175 105.497 30.9759 105.948 29.2179L104.05 28.6795C103.78 29.6104 103.239 30.3558 101.693 30.3558C100.038 30.3558 99.1489 29.4653 98.9836 27.7043H105.995C106.035 27.2087 106.035 26.7741 106.035 26.4007C106.031 23.7374 104.604 21.958 101.667 21.958ZM98.9994 26.2188C99.2058 24.4813 100.096 23.6748 101.606 23.6748C103.157 23.6748 103.901 24.5439 103.983 26.2188H98.9994Z" fill="#3E3E3E"/>
<path d="M113.6 21.958C111.966 21.958 110.728 22.9714 110.189 24.7715H110.002V22.2099H107.83V31.9319H110.04V26.4257C110.04 24.9578 111.033 23.9643 112.522 23.9643C113.867 23.9643 114.383 24.8334 114.383 26.0118V31.9268H116.596V25.4329C116.599 23.3235 115.627 21.958 113.6 21.958Z" fill="#3E3E3E"/>
<path d="M122.926 30.1074C121.954 30.1074 121.601 29.611 121.601 28.6594V24.0068H124.454V22.2104H121.601V19.5811H119.37V22.2104H118.006V24.0097H119.37V28.9724C119.37 30.7923 120.28 32.1998 122.411 32.1998C123.383 32.1998 123.879 32.0753 124.603 31.8478L124.335 29.8628C123.857 30.0043 123.421 30.1074 122.926 30.1074Z" fill="#3E3E3E"/>
<path d="M128.634 18.7529H126.213V20.5515H128.634V18.7529Z" fill="#3E3E3E"/>
<path d="M128.531 22.208H126.297V31.9278H128.531V22.208Z" fill="#3E3E3E"/>
<path d="M135.024 21.9795C132.542 21.9795 131.156 23.1579 130.784 24.9993L132.893 25.4758C133.143 24.3372 133.806 23.7568 134.941 23.7568C136.306 23.7568 136.823 24.4807 136.823 25.7454V26.4082H133.927C131.466 26.4082 130.412 27.6706 130.412 29.4073C130.412 31.3098 131.633 32.1376 133.37 32.1376C135.086 32.1376 136.203 31.1867 136.699 29.6143H136.927V31.9307H139.035V25.7225C139.035 23.303 137.837 21.9795 135.024 21.9795ZM136.825 28.2665C136.825 29.4861 135.794 30.3964 134.24 30.3964C132.978 30.3964 132.546 29.7969 132.546 29.0935C132.546 28.287 133.186 27.8731 134.303 27.8731H136.825V28.2665Z" fill="#3E3E3E"/>
<path d="M143.583 18.6504H141.35V31.9268H143.583V18.6504Z" fill="#3E3E3E"/>
</g>
<defs>
<clipPath id="clip0_86_138">
<rect width="143.981" height="34.2812" fill="white" transform="translate(0.228516 0.789062)"/>
</clipPath>
</defs>
</svg>
