<svg width="141" height="40" viewBox="0 0 141 40" fill="none" xmlns="http://www.w3.org/2000/svg">
<g clip-path="url(#clip0_86_134)">
<path d="M41.1029 10.0139V12.0186C39.9507 10.5254 37.8186 9.50245 35.3455 9.50245C29.5038 9.50245 25.1534 14.6622 25.1534 20.7194C25.1534 26.7765 29.4607 31.9363 35.3455 31.9363C37.8186 31.9363 39.9507 30.9546 41.1029 29.377V31.3817H48.3948V10.0139H41.1029ZM50.9128 0.546875V31.3799H58.4613V19.9925C58.4613 17.7742 59.5274 16.4533 61.2341 16.4533C62.9409 16.4533 63.8365 17.6055 63.8365 19.7377V31.3799H71.385V17.9465C71.385 12.7437 68.5709 9.50245 64.05 9.50245C61.62 9.50245 59.7427 10.4411 58.42 12.1048V0.546875H50.9146H50.9128ZM119.957 20.7194C119.957 27.1157 115.052 31.9363 108.528 31.9363C102.004 31.9363 97.0995 27.1175 97.0995 20.7194C97.0995 14.3212 102.004 9.50245 108.528 9.50245C115.052 9.50245 119.957 14.3212 119.957 20.7194ZM95.8181 20.7194C95.8181 27.1157 90.9132 31.9363 84.3894 31.9363C77.8657 31.9363 72.9607 27.1175 72.9607 20.7194C72.9607 14.3212 77.8657 9.50245 84.3894 9.50245C90.9132 9.50245 95.8181 14.3212 95.8181 20.7194ZM0.759766 10.0139L9.88584 31.5504L6.60153 39.3125H14.6185L26.774 10.0139H18.7983L13.8521 22.5518L8.94721 10.0139H0.759766ZM36.8818 25.111C34.3656 25.111 32.4471 23.1925 32.4471 20.7176C32.4471 18.2427 34.3656 16.3241 36.8818 16.3241C39.398 16.3241 41.2752 18.2427 41.2752 20.7176C41.2752 23.1925 39.3567 25.111 36.8818 25.111ZM88.6554 20.7176C88.6554 18.3288 86.8643 16.4103 84.3912 16.4103C81.9181 16.4103 80.127 18.3288 80.127 20.7176C80.127 23.1063 81.9181 25.0249 84.3912 25.0249C86.8643 25.0249 88.6554 23.1063 88.6554 20.7176ZM112.794 20.7176C112.794 18.3288 111.003 16.4103 108.53 16.4103C106.057 16.4103 104.266 18.3288 104.266 20.7176C104.266 23.1063 106.057 25.0249 108.53 25.0249C111.003 25.0249 112.794 23.1063 112.794 20.7176ZM120.897 26.859C120.897 29.5457 122.986 31.764 125.802 31.764C128.618 31.764 130.878 29.4614 130.878 26.6885C130.878 23.9157 128.789 21.7836 125.973 21.7836C123.157 21.7836 120.897 24.1293 120.897 26.859ZM131.642 0.546875L123.625 19.9081H132.581L140.598 0.546875H131.642Z" fill="#3E3E3E"/>
</g>
<defs>
<clipPath id="clip0_86_134">
<rect width="139.838" height="38.7656" fill="white" transform="translate(0.759766 0.546875)"/>
</clipPath>
</defs>
</svg>
