<svg width="135" height="30" viewBox="0 0 135 30" fill="none" xmlns="http://www.w3.org/2000/svg">
<g clip-path="url(#clip0_86_162)">
<path d="M40.97 0.454694L29.9556 16.3397V6.51733H29.975C29.9753 5.19038 29.5394 3.89968 28.7337 2.84173C27.928 1.78377 26.7966 1.0165 25.5119 0.656727C24.2271 0.296953 22.8593 0.364376 21.6166 0.848734C20.3739 1.33309 19.3245 2.20784 18.6279 3.33985L0.841797 28.9883H10.7589L21.7903 13.0818V22.8698C21.7902 24.1919 22.2231 25.478 23.0235 26.5338C23.8238 27.5897 24.9481 28.3579 26.2264 28.7222C27.5048 29.0866 28.8677 29.0274 30.1092 28.5535C31.3507 28.0796 32.4032 27.2169 33.1079 26.0956L50.8871 0.454694H40.97Z" fill="#3E3E3E"/>
<path d="M120.757 0.454102H112.592V28.989H120.757V0.454102Z" fill="#3E3E3E"/>
<path d="M57.8403 28.9888L58.7269 27.7095L63.298 21.1145V6.51734H63.3174C63.3177 5.19038 62.8818 3.89969 62.0761 2.84173C61.2704 1.78378 60.139 1.0165 58.8543 0.656727C57.5695 0.296953 56.2017 0.364376 54.959 0.848734C53.7163 1.33309 52.6669 2.20785 51.9704 3.33986L34.1914 28.9885H44.1075L55.1327 13.0831V28.9885L57.8403 28.9888Z" fill="#3E3E3E"/>
<path d="M110.059 28.9888V6.51707H110.079C110.08 5.19011 109.643 3.89941 108.838 2.84146C108.032 1.7835 106.901 1.01623 105.616 0.656461C104.331 0.296687 102.963 0.36411 101.721 0.848468C100.478 1.33283 99.4284 2.20758 98.7316 3.33958L89.6992 16.3662V6.51707H89.7186C89.7193 5.18986 89.2828 3.89889 88.4775 2.84074C87.6715 1.7826 86.5397 1.01525 85.2548 0.655558C83.9699 0.295867 82.6017 0.363541 81.3591 0.848274C80.1159 1.333 79.0667 2.20825 78.3707 3.3407L60.5918 28.9888H70.5078L81.5331 13.0834V22.8692H81.5525C81.5517 24.1918 81.9845 25.4785 82.7846 26.5348C83.5854 27.5912 84.7098 28.3597 85.9887 28.7242C87.2677 29.0887 88.6307 29.0293 89.8725 28.5549C91.1143 28.0807 92.1672 27.2173 92.8714 26.0954L101.895 13.0815V28.9885L110.059 28.9888Z" fill="#3E3E3E"/>
<path d="M132.161 7.05261H131.558V5.09888C131.558 4.96232 131.503 4.83135 131.406 4.73479C131.309 4.63824 131.177 4.58398 131.04 4.58398C130.902 4.58398 130.771 4.63824 130.674 4.73479C130.577 4.83135 130.521 4.96232 130.521 5.09888V7.56655C130.521 7.63417 130.535 7.70113 130.561 7.76363C130.587 7.82611 130.626 7.88291 130.673 7.93073C130.722 7.97854 130.779 8.01646 130.841 8.04234C130.904 8.06822 130.971 8.0816 131.04 8.0816H132.161C132.299 8.0816 132.43 8.02732 132.528 7.93073C132.624 7.83414 132.679 7.70314 132.679 7.56655C132.679 7.42996 132.624 7.29895 132.528 7.20236C132.43 7.10578 132.299 7.05151 132.161 7.05151V7.05261Z" fill="#3E3E3E"/>
<path d="M129.427 4.45605C129.294 4.45622 129.163 4.49026 129.047 4.55493C128.931 4.6196 128.833 4.71274 128.764 4.82548L127.618 6.47805V5.27834C127.62 5.26194 127.621 5.24527 127.621 5.22833C127.621 5.06004 127.565 4.89637 127.463 4.76224C127.36 4.62809 127.217 4.53082 127.054 4.48522C126.891 4.43962 126.718 4.44817 126.56 4.50959C126.403 4.57101 126.269 4.68193 126.181 4.82548L124.483 7.27546C124.442 7.33107 124.413 7.3941 124.398 7.46089C124.382 7.52768 124.381 7.59688 124.393 7.66441C124.405 7.73194 124.43 7.79645 124.467 7.85417C124.503 7.91185 124.553 7.96167 124.609 8.00056C124.666 8.03945 124.729 8.06667 124.797 8.08065C124.865 8.09462 124.934 8.09507 125.002 8.08198C125.069 8.0689 125.134 8.0425 125.191 8.00435C125.249 7.96621 125.298 7.91706 125.336 7.85984L126.582 6.06165V7.30308C126.582 7.33243 126.585 7.36173 126.589 7.39067C126.608 7.54989 126.675 7.69952 126.783 7.81884C126.89 7.93817 127.033 8.02123 127.19 8.05655C127.347 8.09195 127.512 8.07775 127.661 8.0161C127.809 7.95438 127.935 7.84822 128.021 7.71229L129.165 6.06138V7.56059C129.165 7.69719 129.22 7.82819 129.317 7.92479C129.414 8.02138 129.546 8.07566 129.683 8.07566C129.821 8.07566 129.952 8.02138 130.05 7.92479C130.147 7.82819 130.202 7.69719 130.202 7.56059V5.27861C130.202 5.26204 130.204 5.24546 130.204 5.22861C130.203 5.02385 130.121 4.82756 129.976 4.68275C129.83 4.53795 129.633 4.45642 129.427 4.45605Z" fill="#3E3E3E"/>
<path d="M128.564 12.6031C127.353 12.6031 126.17 12.2461 125.163 11.5773C124.156 10.9084 123.371 9.95782 122.907 8.84564C122.444 7.73345 122.323 6.50962 122.559 5.32892C122.795 4.14822 123.378 3.06368 124.235 2.21244C125.091 1.3612 126.182 0.781501 127.37 0.546645C128.557 0.311788 129.788 0.432324 130.907 0.89301C132.025 1.35369 132.982 2.13385 133.655 3.13479C134.327 4.13575 134.687 5.31254 134.687 6.51637C134.684 8.13008 134.039 9.67712 132.891 10.8182C131.744 11.9593 130.187 12.6011 128.564 12.6031ZM128.564 1.53214C127.573 1.53219 126.603 1.82457 125.778 2.37227C124.955 2.91998 124.311 3.69843 123.932 4.60918C123.553 5.51994 123.453 6.5221 123.647 7.48892C123.841 8.45577 124.318 9.34384 125.019 10.0409C125.72 10.7379 126.613 11.2126 127.586 11.4048C128.559 11.5971 129.567 11.4985 130.483 11.1212C131.399 10.7439 132.182 10.1051 132.733 9.28547C133.283 8.46581 133.578 7.50215 133.578 6.51637C133.576 5.19495 133.048 3.92811 132.107 2.99377C131.167 2.05943 129.893 1.53388 128.564 1.53242V1.53214Z" fill="#3E3E3E"/>
</g>
<defs>
<clipPath id="clip0_86_162">
<rect width="133.846" height="29" fill="white" transform="translate(0.841797 0.429688)"/>
</clipPath>
</defs>
</svg>
