<svg width="17" height="16" viewBox="0 0 17 16" fill="none" xmlns="http://www.w3.org/2000/svg">
<path d="M8.63672 0C4.21848 0 0.636719 3.58176 0.636719 8C0.636719 11.7517 3.21976 14.8998 6.70424 15.7645V10.4448H5.05464V8H6.70424V6.94656C6.70424 4.22368 7.93656 2.9616 10.6098 2.9616C11.1167 2.9616 11.9913 3.06112 12.349 3.16032V5.37632C12.1602 5.35648 11.8322 5.34656 11.4249 5.34656C10.1132 5.34656 9.60632 5.84352 9.60632 7.13536V8H12.2194L11.7705 10.4448H9.60632V15.9414C13.5676 15.463 16.637 12.0902 16.637 8C16.6367 3.58176 13.055 0 8.63672 0Z" fill="#249E91"/>
</svg>
