<svg width="19" height="18" viewBox="0 0 19 18" fill="none" xmlns="http://www.w3.org/2000/svg">
<g clip-path="url(#clip0_86_354)">
<path d="M16.8258 0H1.48711C0.752344 0 0.158203 0.580078 0.158203 1.29727V16.6992C0.158203 17.4164 0.752344 18 1.48711 18H16.8258C17.5605 18 18.1582 17.4164 18.1582 16.7027V1.29727C18.1582 0.580078 17.5605 0 16.8258 0ZM5.49844 15.3387H2.82656V6.74648H5.49844V15.3387ZM4.1625 5.57578C3.30469 5.57578 2.61211 4.8832 2.61211 4.02891C2.61211 3.17461 3.30469 2.48203 4.1625 2.48203C5.0168 2.48203 5.70937 3.17461 5.70937 4.02891C5.70937 4.87969 5.0168 5.57578 4.1625 5.57578ZM15.4969 15.3387H12.8285V11.1621C12.8285 10.1672 12.8109 8.88398 11.4398 8.88398C10.0512 8.88398 9.84023 9.97031 9.84023 11.0918V15.3387H7.17539V6.74648H9.73477V7.9207H9.76992C10.125 7.2457 10.9969 6.53203 12.2941 6.53203C14.9977 6.53203 15.4969 8.31094 15.4969 10.6242V15.3387Z" fill="#249E91"/>
</g>
<defs>
<clipPath id="clip0_86_354">
<rect width="18" height="18" fill="white" transform="translate(0.158203)"/>
</clipPath>
</defs>
</svg>
