<svg width="59" height="60" viewBox="0 0 59 60" fill="none" xmlns="http://www.w3.org/2000/svg">
<path d="M0 28.2317C0 42.7654 11.0407 54.7647 25.1746 56.2945L25.0238 56.0965L23.9867 54.7333C23.6859 54.3385 23.4022 53.9389 23.1341 53.5368C21.7941 51.5277 20.8606 49.4352 20.3318 47.2993C19.3272 45.8348 18.3239 44.1625 17.4243 42.3006C18.2224 42.0133 19.0472 41.7501 19.9007 41.5157C19.9817 40.6451 20.1289 39.7734 20.3426 38.9041C18.9807 39.2325 17.6827 39.6358 16.4463 40.086C15.2679 37.1558 14.4094 33.8366 14.1921 30.1936H25.0974C25.6008 29.6816 26.125 29.2132 26.6646 28.781C27.1126 28.4224 27.5725 28.0903 28.0409 27.7788C28.3826 27.5518 28.7292 27.3345 29.0795 27.1268V19.9825C33.0542 19.8292 36.6813 18.9658 39.8893 17.7513C40.3073 18.908 40.6717 20.119 40.97 21.3795C41.7003 20.9183 42.4091 20.4064 43.0889 19.8268C42.8148 18.7884 42.4997 17.7851 42.1507 16.8192C44.172 15.9015 45.9867 14.868 47.5841 13.8296C47.8461 13.2766 48.0935 12.685 48.3303 12.0632C48.5005 11.6164 48.6683 11.1612 48.8254 10.6759C48.9605 10.2569 49.0874 9.81134 49.2117 9.36221C44.0393 3.61865 36.551 0 28.2331 0C12.6647 0 0 12.6646 0 28.2317ZM7.27971 13.2079C9.08847 14.4697 11.2618 15.7725 13.7539 16.899C12.5935 20.1385 11.8099 23.7873 11.7339 27.7802H2.4392C2.53314 22.3467 4.31412 17.3299 7.27971 13.2079ZM21.9159 53.2337C17.1924 52.0383 12.9835 49.5571 9.69568 46.1583C11.252 45.149 13.0801 44.1191 15.1435 43.211C17.2397 47.6168 19.8934 51.0168 21.9159 53.2337ZM14.1751 41.0001C11.8472 42.0252 9.79694 43.1939 8.08125 44.3265C4.92991 40.3892 2.91838 35.516 2.51508 30.1926H11.7711C11.9861 34.1964 12.9072 37.8197 14.1751 41.0001ZM14.1487 27.7789C14.226 24.1542 14.9479 20.8134 16.0178 17.8286C19.1666 19.0083 22.7383 19.8449 26.6646 19.9862V27.7789H14.1487ZM29.0795 17.5678V2.45826C29.3065 2.46546 29.5323 2.47885 29.7593 2.49324C31.0234 3.65109 35.8445 8.3661 38.9911 15.5116C36.0367 16.6236 32.7115 17.4157 29.0795 17.5678ZM47.425 11.0249C45.6886 12.2396 43.6203 13.4881 41.2585 14.5686C38.9911 9.36474 35.8893 5.40922 33.6869 3.00638C39.0926 4.17522 43.857 7.04877 47.425 11.0249ZM26.6646 17.5702C23.0798 17.4313 19.8078 16.6635 16.9112 15.5841C20.0299 8.45916 24.8258 3.73329 26.143 2.52102C26.3156 2.5065 26.4908 2.50536 26.6646 2.4945V17.5702ZM22.0826 3.18631C19.8814 5.6168 16.8567 9.53494 14.6425 14.6483C12.4003 13.6268 10.4347 12.4532 8.78177 11.3099C12.2228 7.3604 16.8362 4.47586 22.0826 3.18631Z" fill="white"/>
<path d="M38.659 59.9999C43.7446 59.9999 50.4615 57.5912 55.6752 47.1338C64.7802 28.8692 51.6725 9.54694 51.6725 9.54694C51.4794 10.2798 51.2692 10.9681 51.0494 11.6333C50.7223 12.621 50.3685 13.5387 49.9883 14.3887C48.2943 18.1715 46.0979 20.6492 43.6772 22.4567C42.9552 22.9964 42.2137 23.4793 41.4579 23.9165C38.7135 25.5019 35.8012 26.5257 33.0712 27.7815C31.6766 28.4226 30.3328 29.1314 29.0807 30.0044C28.9902 30.0671 28.9008 30.1311 28.8127 30.1963C28.0579 30.7433 27.3384 31.3567 26.6659 32.0606C25.6759 33.0977 24.7848 34.3245 24.0325 35.8314C23.6003 36.6995 23.2598 37.5483 22.9893 38.379C22.7056 39.2532 22.5063 40.1069 22.3807 40.9376C21.6188 46.0027 23.599 50.2407 25.9077 53.2724C26.1491 53.1468 26.41 53.0079 26.6648 52.8728C27.4195 52.4732 28.2283 52.0337 29.0796 51.5579C30.9933 50.488 33.0965 49.2408 35.1974 47.8656C36.9482 46.7186 38.6881 45.487 40.3025 44.1964C40.6489 43.9198 40.9919 43.6409 41.3262 43.3583C42.0084 42.7824 42.6507 42.1944 43.2629 41.6016C44.6779 40.2312 45.8915 38.8259 46.7536 37.4144C46.7536 37.4144 45.8118 39.2895 44.1323 42.0352C43.7399 42.6764 43.3088 43.3634 42.838 44.0878C41.1318 46.7114 38.927 49.7916 36.3482 52.7232C35.3521 53.8559 34.2992 54.9655 33.198 56.0183C32.4494 56.7344 31.6803 57.4249 30.8882 58.077C31.0635 58.1904 31.2034 58.2738 31.3036 58.3233C31.9773 58.6584 34.8631 59.9999 38.659 59.9999Z" fill="white"/>
</svg>
