<svg width="228" height="59" viewBox="0 0 228 59" fill="none" xmlns="http://www.w3.org/2000/svg">
<path d="M8.27036 41.1015V38.6976H6.06204V41.1015H4.62447V35.3425H6.06204V37.5475H8.31366V35.3425H9.70793V41.1015H8.27036Z" fill="white"/>
<path d="M10.8857 37.5994C11.1347 37.3697 11.43 37.1958 11.7517 37.0892C12.0628 36.9768 12.3908 36.9183 12.7216 36.9163C13.0156 36.9103 13.3084 36.9541 13.5876 37.046C13.8088 37.124 14.0057 37.2581 14.1592 37.4351C14.3168 37.6289 14.4266 37.857 14.4796 38.1009C14.5541 38.4153 14.589 38.7378 14.5835 39.0608V41.1015H13.3452V40.6692C13.2343 40.8469 13.0709 40.9859 12.8775 41.0669C12.6612 41.1589 12.4285 41.206 12.1934 41.2053C12.0237 41.203 11.855 41.1797 11.6911 41.1361C11.5212 41.0957 11.36 41.0254 11.2148 40.9286C11.0662 40.8263 10.9444 40.6899 10.8597 40.5308C10.7604 40.3481 10.7125 40.1419 10.7212 39.9341C10.7081 39.6755 10.7949 39.4217 10.9636 39.2251C11.1302 39.0371 11.3418 38.8943 11.5785 38.81C11.8574 38.7069 12.1485 38.64 12.4445 38.6111C12.7322 38.581 13.0213 38.5665 13.3105 38.5679V38.4987C13.3163 38.4136 13.3002 38.3285 13.2639 38.2513C13.2275 38.1741 13.172 38.1075 13.1027 38.0577C12.945 37.9576 12.7612 37.9064 12.5744 37.9107C12.386 37.9116 12.1999 37.9529 12.0288 38.0318C11.8643 38.1057 11.7124 38.2049 11.5785 38.3258L10.8857 37.5994ZM13.3452 39.3288H12.7303C12.5955 39.3431 12.4622 39.3692 12.3319 39.4067C12.2219 39.4413 12.1213 39.5005 12.0375 39.5796C11.999 39.6161 11.969 39.6605 11.9496 39.7098C11.9301 39.7591 11.9217 39.8121 11.9249 39.865C11.9236 39.9348 11.9416 40.0036 11.9769 40.0639C12.0119 40.1176 12.0594 40.1621 12.1154 40.1936C12.1733 40.2234 12.2343 40.2466 12.2973 40.2627H12.5051C12.6229 40.2802 12.7431 40.27 12.8562 40.2327C12.9693 40.1954 13.072 40.1322 13.1562 40.0482C13.2404 39.9641 13.3037 39.8615 13.341 39.7486C13.3784 39.6357 13.3887 39.5156 13.3711 39.398L13.3452 39.3288Z" fill="white"/>
<path d="M18.3593 38.1528C18.3018 38.1455 18.2436 38.1455 18.1861 38.1528H18.0216C17.8633 38.1489 17.7063 38.1814 17.5626 38.2479C17.4525 38.3094 17.3531 38.3882 17.2682 38.4814C17.201 38.5737 17.1484 38.6758 17.1123 38.7841C17.0812 38.8762 17.0637 38.9723 17.0603 39.0694V41.1448H15.7267V37.046H17.017V37.6426C17.1146 37.4379 17.2638 37.2621 17.45 37.1325C17.6467 36.9996 17.8794 36.9302 18.1169 36.9336H18.4026L18.3593 38.1528Z" fill="white"/>
<path d="M21.7887 41.1015V38.8878C21.8024 38.7816 21.8024 38.6741 21.7887 38.5679C21.7757 38.4714 21.7464 38.3779 21.7021 38.2912C21.6522 38.2155 21.5874 38.1507 21.5116 38.1009C21.4212 38.0527 21.3197 38.0288 21.2172 38.0318C21.1093 38.0303 21.0025 38.0539 20.9054 38.1009C20.8152 38.1479 20.7379 38.2162 20.6802 38.2998C20.6188 38.3836 20.572 38.4772 20.5417 38.5765C20.5139 38.6839 20.4994 38.7942 20.4984 38.9051V41.1015H19.1214V37.046H20.4118V37.608C20.4647 37.5169 20.5287 37.4327 20.6023 37.3573C20.6847 37.2733 20.7779 37.2006 20.8794 37.1411C20.9892 37.0797 21.1053 37.0304 21.2258 36.9941C21.3572 36.9517 21.4948 36.9313 21.6328 36.9336C21.8721 36.9282 22.1093 36.9785 22.3256 37.0806C22.5056 37.1709 22.6626 37.301 22.7846 37.461C22.9025 37.6217 22.9878 37.8038 23.0358 37.9972C23.0872 38.1919 23.1134 38.3924 23.1137 38.5938V41.1015H21.7887Z" fill="white"/>
<path d="M28.3357 39.13V39.277C28.3404 39.3287 28.3404 39.3808 28.3357 39.4326H25.3913C25.3994 39.5434 25.4351 39.6504 25.4952 39.7439C25.5514 39.8375 25.6249 39.9197 25.7117 39.986C25.7926 40.0515 25.8832 40.104 25.9802 40.1417C26.0908 40.1833 26.2083 40.2039 26.3266 40.2022C26.5129 40.2072 26.6975 40.1656 26.8635 40.0812C27.0047 40.0069 27.1287 39.9038 27.2272 39.7785L28.1539 40.3665C27.9623 40.6412 27.7027 40.8617 27.4004 41.0064C27.0573 41.1584 26.6846 41.2323 26.3093 41.2226C26.0148 41.2258 25.722 41.179 25.4433 41.0842C25.1812 40.9945 24.9398 40.8534 24.7331 40.6692C24.5244 40.4822 24.3589 40.252 24.2482 39.9947C24.1302 39.7066 24.0713 39.3979 24.075 39.0867C24.0759 38.79 24.1347 38.4963 24.2482 38.222C24.3525 37.9631 24.5121 37.7299 24.7158 37.5389C24.9134 37.3452 25.1494 37.195 25.4086 37.0979C25.6847 36.9913 25.9787 36.9385 26.2746 36.9422C26.5709 36.9341 26.8658 36.9871 27.1406 37.0979C27.3833 37.1935 27.6021 37.341 27.7815 37.5302C27.9673 37.7306 28.1115 37.9657 28.2058 38.222C28.2985 38.5155 28.3424 38.8223 28.3357 39.13ZM27.106 38.6111C27.1044 38.412 27.034 38.2196 26.9068 38.0663C26.8274 37.9882 26.7324 37.9277 26.6279 37.889C26.5234 37.8502 26.4118 37.8341 26.3006 37.8415C26.1795 37.839 26.059 37.8595 25.9455 37.9021C25.8411 37.9391 25.7443 37.9948 25.6598 38.0663C25.5795 38.138 25.5122 38.2228 25.4606 38.3171C25.4174 38.4098 25.391 38.5093 25.3826 38.6111H27.106Z" fill="white"/>
<path d="M31.7218 38.2479C31.6076 38.144 31.4793 38.0567 31.3408 37.9885C31.1952 37.9168 31.0354 37.8784 30.8731 37.8761C30.7531 37.8741 30.6343 37.9008 30.5267 37.9539C30.4767 37.9736 30.434 38.0083 30.4045 38.0532C30.375 38.0981 30.3602 38.151 30.3622 38.2047C30.3604 38.2597 30.3775 38.3136 30.4106 38.3576C30.4436 38.4016 30.4907 38.4331 30.544 38.4468C30.7265 38.5179 30.9149 38.5728 31.1069 38.6111C31.2633 38.6453 31.4168 38.6915 31.5659 38.7495C31.7191 38.8078 31.8622 38.8895 31.9903 38.9916C32.1135 39.0889 32.2165 39.2093 32.2934 39.3461C32.3689 39.5025 32.4074 39.6741 32.406 39.8477C32.414 40.074 32.3601 40.2982 32.2501 40.4962C32.1521 40.6716 32.0123 40.8201 31.8431 40.9286C31.6721 41.0356 31.4849 41.1144 31.2888 41.162C31.0846 41.2107 30.8752 41.2339 30.6653 41.2312C30.3357 41.2316 30.0082 41.179 29.6954 41.0756C29.3964 40.9853 29.1233 40.8253 28.8986 40.6086L29.6521 39.8217C29.7739 39.9558 29.921 40.0645 30.0851 40.1417C30.2575 40.2264 30.4471 40.2708 30.6393 40.2714C30.7535 40.2704 30.8659 40.2438 30.9684 40.1936C31.0182 40.1695 31.0597 40.1311 31.0874 40.0834C31.1152 40.0356 31.128 39.9806 31.1243 39.9255C31.124 39.8644 31.1046 39.805 31.0689 39.7554C31.0332 39.7058 30.983 39.6685 30.9251 39.6488C30.7289 39.5679 30.5261 39.5043 30.3189 39.4585C30.1748 39.4244 30.0331 39.3811 29.8945 39.3288C29.7567 39.2778 29.628 39.2048 29.5135 39.1127C29.4007 39.0152 29.3068 38.898 29.2364 38.7668C29.1637 38.6159 29.1281 38.4499 29.1325 38.2825C29.1242 38.0644 29.1783 37.8485 29.2883 37.6599C29.3883 37.4911 29.5243 37.3464 29.6867 37.2362C29.8531 37.1246 30.0378 37.0427 30.2323 36.9941C30.4245 36.9434 30.6224 36.9172 30.8212 36.9163C31.1157 36.92 31.4079 36.9696 31.6872 37.0633C31.9635 37.1483 32.2178 37.293 32.4319 37.487L31.7218 38.2479Z" fill="white"/>
<path d="M35.7314 38.2479C35.6203 38.1402 35.4914 38.0524 35.3504 37.9885C35.2048 37.9168 35.045 37.8784 34.8827 37.8761C34.7628 37.8751 34.6443 37.9017 34.5363 37.9539C34.4879 37.975 34.447 38.0102 34.4192 38.055C34.3913 38.0998 34.3778 38.152 34.3805 38.2047C34.3797 38.2582 34.396 38.3106 34.4272 38.3542C34.4584 38.3977 34.5027 38.4302 34.5537 38.4468C34.7392 38.5176 34.9304 38.5725 35.1252 38.6111C35.2812 38.6466 35.4346 38.6928 35.5842 38.7495C35.7355 38.806 35.8761 38.8879 35.9999 38.9916C36.1255 39.0864 36.229 39.2074 36.303 39.3461C36.3828 39.501 36.4215 39.6736 36.4156 39.8477C36.4236 40.074 36.3697 40.2982 36.2597 40.4962C36.1623 40.6692 36.0259 40.8172 35.8613 40.9286C35.6872 41.0357 35.4972 41.1145 35.2984 41.162C35.0971 41.2106 34.8906 41.2338 34.6836 41.2312C34.3511 41.2316 34.0208 41.1791 33.705 41.0756C33.4069 40.9833 33.1343 40.8235 32.9082 40.6086L33.6617 39.8217C33.7884 39.954 33.938 40.0624 34.1033 40.1417C34.2752 40.2282 34.4651 40.2727 34.6576 40.2714C34.7689 40.2703 34.8786 40.2436 34.978 40.1936C35.0278 40.1695 35.0693 40.1311 35.0971 40.0834C35.1248 40.0356 35.1377 39.9806 35.1339 39.9255C35.1355 39.8652 35.1179 39.8059 35.0837 39.7562C35.0495 39.7065 35.0003 39.6689 34.9434 39.6488C34.7441 39.5682 34.5385 39.5045 34.3285 39.4585L33.9041 39.3288C33.7672 39.2758 33.6388 39.203 33.5231 39.1127C33.413 39.0149 33.322 38.8976 33.2546 38.7668C33.182 38.6159 33.1464 38.4499 33.1507 38.2825C33.1425 38.0644 33.1965 37.8485 33.3066 37.6599C33.4041 37.4893 33.5406 37.3441 33.705 37.2362C33.8683 37.1246 34.05 37.0426 34.2419 36.9941C34.4369 36.9427 34.6377 36.9166 34.8394 36.9163C35.1339 36.9207 35.426 36.9703 35.7054 37.0633C35.9792 37.1485 36.2306 37.2932 36.4415 37.487L35.7314 38.2479Z" fill="white"/>
<path d="M38.8057 35.7575C38.8085 35.8561 38.7877 35.9539 38.7451 36.0429C38.7036 36.1293 38.648 36.2082 38.5806 36.2764C38.508 36.34 38.4262 36.3925 38.3381 36.432C38.2437 36.4662 38.1441 36.4838 38.0437 36.4839C37.9427 36.4872 37.8422 36.4697 37.7484 36.4325C37.6545 36.3953 37.5693 36.3392 37.4981 36.2677C37.4267 36.2033 37.3698 36.1245 37.331 36.0366C37.2922 35.9487 37.2724 35.8536 37.2729 35.7575C37.2712 35.6591 37.2919 35.5615 37.3335 35.4722C37.369 35.3824 37.4254 35.3023 37.4981 35.2387C37.5707 35.1751 37.6524 35.1226 37.7406 35.0831C37.8358 35.0406 37.9394 35.02 38.0437 35.0225C38.1441 35.0226 38.2437 35.0402 38.3381 35.0744C38.4262 35.1139 38.508 35.1664 38.5806 35.2301C38.648 35.2982 38.7036 35.3771 38.7451 35.4635C38.7866 35.5559 38.8073 35.6563 38.8057 35.7575ZM37.3682 41.1015V37.046H38.7105V41.1015H37.3682Z" fill="white"/>
<path d="M42.5988 41.1015V38.8878C42.6081 38.7814 42.6081 38.6743 42.5988 38.5679C42.5831 38.4709 42.5509 38.3773 42.5036 38.2912C42.4594 38.2139 42.397 38.1486 42.3217 38.1009C42.2282 38.0527 42.1239 38.0289 42.0186 38.0318C41.9109 38.032 41.8046 38.0556 41.7069 38.1009C41.6185 38.1504 41.5417 38.2182 41.4817 38.2998C41.4197 38.3821 41.3755 38.4763 41.3518 38.5765C41.3343 38.6854 41.3343 38.7963 41.3518 38.9051V41.1015H39.9315V37.046H41.2306V37.608C41.2806 37.515 41.3449 37.4304 41.4211 37.3573C41.5016 37.2713 41.5951 37.1983 41.6982 37.1411C41.8072 37.0781 41.9236 37.0288 42.0446 36.9941C42.173 36.9517 42.3077 36.9312 42.443 36.9336C42.6823 36.9272 42.9197 36.9776 43.1358 37.0806C43.3173 37.1684 43.4748 37.299 43.5948 37.461C43.7186 37.6192 43.8072 37.802 43.8546 37.9972C43.906 38.1919 43.9322 38.3924 43.9325 38.5938V41.1015H42.5988Z" fill="white"/>
<path d="M49.2584 41.7587C49.1529 42.0338 48.9872 42.282 48.7735 42.4851C48.5566 42.6819 48.2995 42.8294 48.0201 42.9174C47.7031 43.0142 47.3729 43.0609 47.0415 43.0558C46.655 43.057 46.2703 43.0046 45.8983 42.9001C45.5434 42.8018 45.2091 42.6407 44.9111 42.4245L45.5866 41.4734C45.7731 41.6431 45.9907 41.7752 46.2274 41.8625C46.4535 41.939 46.6902 41.9799 46.9289 41.9835C47.0872 41.9972 47.2466 41.9764 47.3961 41.9227C47.5456 41.869 47.6816 41.7835 47.7949 41.6722C47.9933 41.4458 48.0958 41.1512 48.0807 40.8507V40.6086C47.9648 40.7754 47.8103 40.9119 47.6303 41.0064C47.4008 41.1055 47.153 41.1556 46.9029 41.1534C46.6053 41.1676 46.3085 41.1113 46.0369 40.9891C45.8042 40.8856 45.5972 40.732 45.4307 40.5395C45.2593 40.3459 45.1296 40.1193 45.0496 39.8736C44.879 39.351 44.879 38.7878 45.0496 38.2652C45.1276 38.0161 45.2575 37.7862 45.4307 37.5907C45.5966 37.391 45.8033 37.2288 46.0369 37.1152C46.2918 36.9972 46.57 36.9381 46.8509 36.9422C47.1045 36.942 47.3553 36.9951 47.587 37.0979C47.8171 37.2024 48.0124 37.3704 48.15 37.5821V37.0546H49.4143V40.7297C49.4248 41.0793 49.372 41.4279 49.2584 41.7587ZM48.1586 39.0521C48.1582 38.9194 48.1347 38.7878 48.0893 38.663C48.0441 38.54 47.9733 38.428 47.8815 38.3344C47.7965 38.24 47.6934 38.1636 47.5784 38.1096C47.4499 38.0537 47.3115 38.0242 47.1714 38.0231C47.031 38.0222 46.8922 38.0517 46.7643 38.1096C46.6519 38.1599 46.5515 38.2336 46.4699 38.3258C46.3828 38.4198 46.3177 38.5321 46.2794 38.6544C46.234 38.7821 46.2106 38.9166 46.2101 39.0521C46.2105 39.1849 46.234 39.3165 46.2794 39.4413C46.3639 39.6832 46.5372 39.884 46.7643 40.0033C46.8922 40.0612 47.031 40.0907 47.1714 40.0898C47.3718 40.0909 47.5677 40.03 47.7321 39.9154C47.8965 39.8009 48.0213 39.6382 48.0893 39.4499C48.1347 39.3222 48.1581 39.1877 48.1586 39.0521Z" fill="white"/>
<path d="M56.8793 39.13V39.277C56.884 39.3287 56.884 39.3808 56.8793 39.4326H53.9349C53.951 39.5416 53.9862 39.647 54.0388 39.7439C54.0976 39.8383 54.174 39.9205 54.264 39.986C54.3523 40.0546 54.4519 40.1073 54.5584 40.1417C54.6692 40.1828 54.7866 40.2033 54.9048 40.2022C55.0939 40.2072 55.2812 40.1656 55.4504 40.0811C55.5891 40.0068 55.7101 39.9036 55.8055 39.7785L56.7321 40.3665C56.5405 40.6412 56.2809 40.8617 55.9786 41.0064C55.6382 41.1575 55.2685 41.2313 54.8961 41.2226C54.6017 41.2258 54.3089 41.179 54.0301 41.0842C53.7654 40.9947 53.5211 40.8536 53.3113 40.6692C53.1051 40.4818 52.9425 40.2516 52.835 39.9947C52.71 39.7085 52.648 39.3989 52.6532 39.0867C52.6541 38.79 52.7129 38.4963 52.8264 38.222C52.9307 37.9631 53.0903 37.7299 53.294 37.5389C53.493 37.3469 53.7286 37.1969 53.9868 37.0979C54.2632 36.9923 54.557 36.9395 54.8528 36.9422C55.1492 36.9336 55.4441 36.9866 55.7188 37.0979C55.9406 37.2033 56.1359 37.3569 56.2904 37.5475C56.4762 37.7478 56.6205 37.983 56.7148 38.2393C56.8173 38.5254 56.8729 38.8261 56.8793 39.13ZM55.6496 38.6111C55.6407 38.4088 55.561 38.216 55.4244 38.0663C55.347 37.9879 55.2535 37.9272 55.1503 37.8884C55.0472 37.8496 54.9368 37.8336 54.8269 37.8415C54.7029 37.8391 54.5796 37.8596 54.4631 37.902C54.3606 37.9431 54.2644 37.9984 54.1774 38.0663C54.0972 38.1359 54.0324 38.2213 53.9868 38.3171C53.9371 38.4077 53.9076 38.508 53.9002 38.6111H55.6496Z" fill="white"/>
<path d="M60.5425 41.1015V38.8878C60.5518 38.7814 60.5518 38.6743 60.5425 38.5679C60.5267 38.4709 60.4945 38.3773 60.4472 38.2912C60.4031 38.2139 60.3406 38.1486 60.2654 38.1009C60.1718 38.0527 60.0675 38.0289 59.9623 38.0318C59.8546 38.032 59.7482 38.0556 59.6505 38.1009C59.5621 38.1504 59.4853 38.2182 59.4254 38.2998C59.3633 38.3821 59.3191 38.4763 59.2955 38.5765C59.278 38.6854 59.278 38.7963 59.2955 38.9051V41.1015H57.8752V37.046H59.1742V37.608C59.2242 37.515 59.2885 37.4304 59.3647 37.3573C59.4453 37.2713 59.5388 37.1983 59.6419 37.1411C59.7509 37.0781 59.8672 37.0288 59.9883 36.9941C60.1167 36.9517 60.2514 36.9312 60.3866 36.9336C60.6259 36.9272 60.8634 36.9776 61.0794 37.0806C61.261 37.1684 61.4185 37.299 61.5384 37.461C61.6623 37.6192 61.7508 37.802 61.7982 37.9972C61.8497 38.1919 61.8759 38.3924 61.8761 38.5938V41.1015H60.5425Z" fill="white"/>
<path d="M67.0895 39.13V39.277C67.0942 39.3287 67.0942 39.3808 67.0895 39.4326H64.1451C64.1612 39.5416 64.1964 39.647 64.249 39.7439C64.3078 39.8383 64.3842 39.9205 64.4742 39.986C64.6637 40.1222 64.8902 40.1975 65.1237 40.2022C65.3099 40.2061 65.4942 40.1646 65.6606 40.0812C65.7993 40.0068 65.9204 39.9036 66.0157 39.7785L66.9509 40.3665C66.7582 40.6435 66.4952 40.8643 66.1889 41.0064C65.8485 41.1575 65.4788 41.2313 65.1064 41.2226C64.8119 41.2258 64.5191 41.179 64.2403 41.0842C63.9756 40.9947 63.7313 40.8536 63.5216 40.6692C63.3153 40.4818 63.1527 40.2516 63.0453 39.9947C62.9232 39.7079 62.8641 39.3983 62.8721 39.0867C62.8702 38.7906 62.9261 38.4968 63.0366 38.222C63.1442 37.9662 63.3024 37.7347 63.5018 37.5416C63.7012 37.3484 63.9377 37.1975 64.197 37.0979C64.4734 36.9923 64.7672 36.9395 65.063 36.9422C65.3449 36.9388 65.6247 36.9917 65.8858 37.0979C66.1324 37.1908 66.3545 37.3386 66.5353 37.5302C66.7154 37.7332 66.8563 37.9678 66.9509 38.222C67.0508 38.514 67.0978 38.8215 67.0895 39.13ZM65.8598 38.6111C65.8653 38.4108 65.794 38.216 65.6606 38.0663C65.5832 37.9879 65.4897 37.9272 65.3866 37.8884C65.2834 37.8496 65.173 37.8336 65.063 37.8415C64.9391 37.8391 64.8158 37.8596 64.6993 37.9021C64.5985 37.9411 64.5049 37.9967 64.4222 38.0663C64.3395 38.1356 64.2717 38.2209 64.223 38.3171C64.1733 38.4077 64.1438 38.508 64.1364 38.6111H65.8598Z" fill="white"/>
<path d="M70.7267 38.1528C70.6664 38.1446 70.6052 38.1446 70.5449 38.1528H70.3803C70.2248 38.1487 70.0705 38.1812 69.93 38.2479C69.8184 38.3071 69.7186 38.3862 69.6356 38.4814C69.5626 38.5714 69.5068 38.674 69.471 38.7841C69.4609 38.8789 69.4609 38.9746 69.471 39.0694V41.1448H68.0854V37.046H69.3758V37.6426C69.4764 37.4373 69.6285 37.2616 69.8174 37.1325C70.0109 36.9998 70.2409 36.9303 70.4756 36.9336H70.7614L70.7267 38.1528Z" fill="white"/>
<path d="M75.4725 41.7587C75.3669 42.0338 75.2012 42.282 74.9875 42.4851C74.7706 42.6819 74.5136 42.8294 74.2341 42.9174C73.9142 43.0147 73.5811 43.0614 73.2468 43.0558C72.8749 43.0533 72.505 43.0009 72.147 42.9001C71.7921 42.8018 71.4577 42.6407 71.1597 42.4245L71.8352 41.4733C72.0217 41.6431 72.2393 41.7752 72.4761 41.8625C72.7022 41.939 72.9388 41.9799 73.1775 41.9835C73.3358 41.9972 73.4952 41.9764 73.6447 41.9227C73.7942 41.869 73.9303 41.7835 74.0435 41.6722C74.242 41.4458 74.3445 41.1512 74.3293 40.8507V40.6086C74.1978 40.7789 74.0249 40.9129 73.827 40.9977C73.5975 41.0969 73.3497 41.147 73.0996 41.1448C72.8296 41.1532 72.5611 41.1026 72.3128 40.9966C72.0645 40.8905 71.8424 40.7316 71.662 40.5308C71.4964 40.3347 71.37 40.1086 71.2896 39.865C71.119 39.3424 71.119 38.7792 71.2896 38.2566C71.367 38.0078 71.4945 37.7775 71.6643 37.5797C71.834 37.3819 72.0425 37.2209 72.2769 37.1065C72.5318 36.9885 72.81 36.9294 73.0909 36.9336C73.3445 36.9334 73.5953 36.9864 73.827 37.0892C74.0571 37.1937 74.2524 37.3617 74.3899 37.5735V37.046H75.6543V40.721C75.6575 41.0751 75.5959 41.4268 75.4725 41.7587ZM74.3726 39.0521C74.3722 38.9194 74.3487 38.7878 74.3033 38.663C74.2549 38.5417 74.1844 38.4303 74.0955 38.3344C74.0105 38.24 73.9074 38.1636 73.7924 38.1096C73.6639 38.0537 73.5255 38.0242 73.3854 38.0231C73.245 38.0222 73.1062 38.0517 72.9783 38.1096C72.8659 38.1599 72.7655 38.2336 72.6839 38.3258C72.5968 38.4198 72.5317 38.5321 72.4934 38.6544C72.448 38.7821 72.4246 38.9166 72.4241 39.0521C72.4245 39.1849 72.448 39.3165 72.4934 39.4413C72.5779 39.6832 72.7513 39.884 72.9783 40.0033C73.1062 40.0612 73.245 40.0907 73.3854 40.0898C73.5859 40.0909 73.7818 40.03 73.9461 39.9154C74.1105 39.8008 74.2353 39.6382 74.3033 39.4499C74.3487 39.3222 74.3722 39.1877 74.3726 39.0521Z" fill="white"/>
<path d="M79.153 41.7155C79.0791 41.9126 78.9893 42.1035 78.8845 42.2862C78.7863 42.4431 78.6635 42.5832 78.5208 42.7013C78.3799 42.8237 78.2146 42.9151 78.0358 42.9693C77.8194 43.0324 77.5944 43.0615 77.369 43.0558H76.9793L76.6329 42.9866L76.7801 41.8625C76.8498 41.889 76.9225 41.9064 76.9966 41.9144H77.2131C77.2942 41.9208 77.3757 41.9111 77.453 41.8859C77.5303 41.8607 77.6019 41.8204 77.6635 41.7673C77.7722 41.652 77.8523 41.5128 77.8973 41.3609L78.0272 41.0064L76.2952 37.0114H77.7847L78.6507 39.6055L79.4648 37.0114H80.9716L79.153 41.7155Z" fill="white"/>
<path d="M82.0974 42.1132H80.9976L81.6124 39.8044H82.8941L82.0974 42.1132Z" fill="white"/>
<path d="M90.4457 39.0608C90.4469 39.337 90.403 39.6115 90.3158 39.8736C90.2326 40.1257 90.1034 40.3602 89.9348 40.5654C89.7669 40.7632 89.5607 40.9249 89.3286 41.041C89.0754 41.1649 88.7964 41.2271 88.5145 41.2226C88.2691 41.2245 88.0264 41.1713 87.8044 41.0669C87.5948 40.9815 87.4123 40.841 87.2761 40.6605V43.0558H85.9251V37.046H87.1982V37.5475C87.3372 37.3668 87.5147 37.2191 87.7178 37.1152C87.9575 36.9883 88.226 36.9257 88.4972 36.9336C88.7722 36.9323 89.0442 36.9913 89.2939 37.1065C89.5275 37.2165 89.7343 37.3758 89.9001 37.5735C90.0704 37.7711 90.1998 38.0003 90.2812 38.2479C90.3843 38.5069 90.4401 38.7822 90.4457 39.0608ZM89.1467 39.0608C89.1484 38.9314 89.1279 38.8027 89.0861 38.6803C89.0465 38.5604 88.9848 38.4489 88.9042 38.3517C88.8244 38.2533 88.7239 38.1736 88.6098 38.1182C88.4806 38.0544 88.3382 38.0218 88.1941 38.0231C88.0527 38.0212 87.9129 38.0538 87.7871 38.1182C87.6695 38.1761 87.5638 38.2553 87.4753 38.3517C87.3918 38.4516 87.3273 38.5659 87.2848 38.6889C87.1924 38.9342 87.1924 39.2046 87.2848 39.4499C87.3273 39.5729 87.3918 39.6872 87.4753 39.7871C87.5638 39.8836 87.6695 39.9628 87.7871 40.0206C87.9129 40.085 88.0527 40.1177 88.1941 40.1157C88.3382 40.1171 88.4806 40.0845 88.6098 40.0206C88.7239 39.9653 88.8244 39.8856 88.9042 39.7871C88.9849 39.6868 89.0466 39.5725 89.0861 39.4499C89.1273 39.3243 89.1477 39.1929 89.1467 39.0608Z" fill="white"/>
<path d="M94.0829 38.1528C94.0254 38.1455 93.9672 38.1455 93.9097 38.1528H93.7365C93.5811 38.1496 93.427 38.1822 93.2862 38.2479C93.1761 38.3094 93.0767 38.3882 92.9918 38.4814C92.9246 38.5737 92.872 38.6758 92.8359 38.7841C92.8048 38.8762 92.7873 38.9723 92.7839 39.0694V41.1448H91.4503V37.046H92.732V37.6426C92.8326 37.4373 92.9847 37.2616 93.1736 37.1325C93.3679 37.0013 93.5973 36.9319 93.8318 36.9336H94.1176L94.0829 38.1528Z" fill="white"/>
<path d="M98.7247 39.13V39.277C98.7247 39.3375 98.7247 39.3894 98.7247 39.4326H95.7803C95.7884 39.5434 95.8241 39.6504 95.8842 39.7439C95.9404 39.8375 96.0139 39.9197 96.1007 39.986C96.1911 40.0563 96.2939 40.1091 96.4038 40.1417C96.5145 40.1833 96.632 40.2039 96.7502 40.2022C96.9174 40.2026 97.0825 40.1645 97.2327 40.0911C97.3828 40.0176 97.5141 39.9107 97.6162 39.7785L98.5429 40.3665C98.3706 40.6324 98.1357 40.8522 97.8587 41.0064C97.5156 41.1584 97.1428 41.2323 96.7675 41.2226C96.4731 41.2258 96.1803 41.179 95.9015 41.0842C95.6395 40.9945 95.3981 40.8534 95.1914 40.6692C94.9826 40.4822 94.8171 40.252 94.7065 39.9947C94.5885 39.7066 94.5296 39.3979 94.5333 39.0867C94.5342 38.79 94.593 38.4963 94.7065 38.222C94.811 37.9653 94.9672 37.7328 95.1654 37.5389C95.3658 37.3487 95.601 37.199 95.8582 37.0979C96.1348 36.9931 96.4284 36.9403 96.7243 36.9422C97.0207 36.9318 97.316 36.9849 97.5903 37.0979C97.8369 37.1908 98.059 37.3386 98.2398 37.5302C98.4258 37.7288 98.5675 37.9646 98.6554 38.222C98.732 38.5182 98.7554 38.8256 98.7247 39.13ZM97.495 38.6111C97.4934 38.412 97.423 38.2196 97.2958 38.0663C97.2164 37.9882 97.1214 37.9277 97.0169 37.889C96.9124 37.8502 96.8008 37.8341 96.6896 37.8415C96.5684 37.8383 96.4478 37.8589 96.3345 37.902C96.2301 37.9391 96.1333 37.9948 96.0488 38.0663C95.966 38.1356 95.8983 38.2209 95.8496 38.3171C95.8026 38.4083 95.776 38.5086 95.7716 38.6111H97.495Z" fill="white"/>
<path d="M102.111 38.2479C101.995 38.142 101.864 38.0546 101.721 37.9885C101.579 37.9169 101.422 37.8785 101.262 37.8761C101.142 37.8741 101.023 37.9008 100.916 37.9539C100.865 37.9725 100.821 38.0069 100.792 38.0521C100.762 38.0972 100.748 38.1508 100.751 38.2047C100.749 38.2597 100.767 38.3136 100.8 38.3576C100.833 38.4016 100.88 38.4331 100.933 38.4468C101.116 38.5179 101.304 38.5728 101.496 38.6111C101.652 38.6453 101.806 38.6915 101.955 38.7495C102.108 38.8078 102.251 38.8895 102.379 38.9916C102.503 39.0889 102.605 39.2093 102.682 39.3461C102.758 39.5025 102.796 39.6741 102.795 39.8477C102.803 40.074 102.749 40.2982 102.639 40.4962C102.539 40.6698 102.399 40.8178 102.232 40.9286C102.061 41.0356 101.874 41.1144 101.678 41.162C101.474 41.2107 101.264 41.2339 101.054 41.2312C100.725 41.2316 100.397 41.179 100.084 41.0756C99.7854 40.9853 99.5123 40.8253 99.2876 40.6086L100.032 39.8217C100.154 39.9524 100.298 40.0607 100.457 40.1417C100.629 40.2273 100.819 40.2717 101.011 40.2714C101.125 40.2704 101.238 40.2438 101.34 40.1936C101.39 40.1695 101.431 40.1311 101.459 40.0834C101.487 40.0356 101.5 39.9806 101.496 39.9255C101.496 39.8644 101.476 39.805 101.441 39.7554C101.405 39.7058 101.355 39.6685 101.297 39.6488C101.101 39.5679 100.898 39.5043 100.691 39.4585C100.546 39.4244 100.405 39.3811 100.266 39.3288C100.128 39.2778 99.9996 39.2048 99.8852 39.1127C99.7701 39.0175 99.6757 38.8998 99.608 38.7668C99.5354 38.6159 99.4998 38.4499 99.5041 38.2825C99.4959 38.0644 99.5499 37.8485 99.66 37.6599C99.7599 37.4911 99.896 37.3464 100.058 37.2362C100.225 37.1246 100.409 37.0427 100.604 36.9941C100.796 36.9428 100.994 36.9166 101.193 36.9163C101.487 36.92 101.78 36.9696 102.059 37.0633C102.334 37.1463 102.585 37.2912 102.795 37.487L102.111 38.2479Z" fill="white"/>
<path d="M107.757 39.13V39.277C107.762 39.3287 107.762 39.3808 107.757 39.4326H104.787C104.803 39.5416 104.838 39.647 104.891 39.7439C104.949 39.8383 105.026 39.9205 105.116 39.986C105.204 40.0546 105.304 40.1073 105.41 40.1417C105.521 40.1828 105.639 40.2033 105.757 40.2022C105.946 40.2072 106.133 40.1656 106.302 40.0811C106.441 40.0068 106.562 39.9036 106.657 39.7785L107.584 40.3665C107.392 40.6412 107.133 40.8617 106.831 41.0064C106.49 41.1575 106.12 41.2313 105.748 41.2226C105.454 41.2258 105.161 41.179 104.882 41.0842C104.617 40.9947 104.373 40.8536 104.163 40.6692C103.957 40.4818 103.794 40.2516 103.687 39.9947C103.562 39.7085 103.5 39.3989 103.505 39.0867C103.506 38.79 103.565 38.4963 103.678 38.222C103.783 37.9631 103.942 37.7299 104.146 37.5389C104.345 37.3469 104.58 37.1969 104.839 37.0979C105.115 36.9923 105.409 36.9395 105.705 36.9422C106.001 36.9336 106.296 36.9866 106.571 37.0979C106.816 37.1891 107.035 37.3373 107.212 37.5302C107.397 37.7306 107.542 37.9657 107.636 38.222C107.726 38.516 107.767 38.8227 107.757 39.13ZM106.527 38.6111C106.526 38.412 106.455 38.2196 106.328 38.0663C106.251 37.9879 106.157 37.9272 106.054 37.8884C105.951 37.8496 105.841 37.8336 105.731 37.8415C105.607 37.8391 105.483 37.8596 105.367 37.902C105.264 37.9431 105.168 37.9984 105.081 38.0663C105.001 38.1359 104.936 38.2213 104.891 38.3171C104.841 38.4077 104.811 38.508 104.804 38.6111H106.527Z" fill="white"/>
<path d="M111.386 38.1528C111.328 38.1447 111.27 38.1447 111.213 38.1528H111.048C110.892 38.1487 110.738 38.1812 110.598 38.2479C110.485 38.3049 110.384 38.3843 110.303 38.4814C110.23 38.5714 110.174 38.674 110.139 38.7841C110.114 38.8774 110.1 38.973 110.095 39.0694V41.1448H108.753V37.046H110.043V37.6426C110.144 37.4373 110.296 37.2616 110.485 37.1325C110.679 36.9998 110.909 36.9303 111.143 36.9336H111.429L111.386 38.1528Z" fill="white"/>
<path d="M114.659 41.1015H113.213L111.62 37.046H113.092L113.958 39.6401L114.824 37.046H116.253L114.659 41.1015Z" fill="white"/>
<path d="M118.383 35.7575C118.386 35.8561 118.365 35.9539 118.322 36.0429C118.284 36.1287 118.231 36.2075 118.167 36.2764C118.091 36.34 118.006 36.3925 117.915 36.432C117.821 36.4662 117.721 36.4838 117.621 36.4839C117.52 36.4872 117.42 36.4697 117.326 36.4325C117.232 36.3953 117.147 36.3392 117.075 36.2677C117.004 36.2033 116.947 36.1245 116.908 36.0366C116.87 35.9487 116.85 35.8536 116.85 35.7575C116.853 35.6595 116.873 35.5628 116.911 35.4722C116.949 35.3841 117.005 35.3047 117.075 35.2387C117.148 35.1751 117.23 35.1226 117.318 35.0831C117.413 35.0406 117.517 35.02 117.621 35.0225C117.721 35.0226 117.821 35.0402 117.915 35.0744C118.006 35.114 118.091 35.1664 118.167 35.2301C118.231 35.2989 118.284 35.3778 118.322 35.4635C118.364 35.5559 118.385 35.6563 118.383 35.7575ZM116.954 41.1015V37.046H118.288V41.1015H116.954Z" fill="white"/>
<path d="M122.176 41.1015V38.8878C122.185 38.7814 122.185 38.6743 122.176 38.5679C122.16 38.4709 122.128 38.3773 122.081 38.2912C122.037 38.2139 121.974 38.1486 121.899 38.1009C121.809 38.0527 121.707 38.0288 121.605 38.0318C121.494 38.0311 121.385 38.0547 121.284 38.1009C121.197 38.1482 121.122 38.2165 121.068 38.2998C121.003 38.3816 120.956 38.4758 120.929 38.5765C120.901 38.6839 120.887 38.7942 120.886 38.9051V41.1015H119.509V37.046H120.808V37.608C120.861 37.5169 120.925 37.4327 120.998 37.3573C121.079 37.2713 121.172 37.1983 121.276 37.1411C121.385 37.0781 121.501 37.0288 121.622 36.9941C121.751 36.9523 121.885 36.9319 122.02 36.9336C122.26 36.9272 122.497 36.9776 122.713 37.0806C122.896 37.1706 123.056 37.3006 123.181 37.461C123.299 37.6217 123.384 37.8038 123.432 37.9972C123.483 38.1919 123.51 38.3924 123.51 38.5938V41.1015H122.176Z" fill="white"/>
<path d="M128.836 41.7587C128.733 42.0354 128.567 42.2842 128.351 42.4851C128.135 42.6837 127.878 42.8315 127.597 42.9174C127.28 43.0142 126.95 43.0609 126.619 43.0558C126.244 43.0538 125.871 43.0015 125.51 42.9001C125.158 42.8019 124.826 42.6407 124.532 42.4245L125.199 41.4734C125.387 41.645 125.608 41.7773 125.848 41.8625C126.071 41.9397 126.305 41.9805 126.541 41.9835C126.699 41.9949 126.858 41.9731 127.007 41.9195C127.156 41.8659 127.292 41.7817 127.407 41.6722C127.599 41.4428 127.698 41.1496 127.684 40.8507V40.6086C127.552 40.7789 127.38 40.9129 127.182 40.9978C126.952 41.0969 126.704 41.147 126.454 41.1448C126.171 41.1514 125.89 41.0953 125.632 40.9805C125.399 40.8769 125.192 40.7234 125.025 40.5308C124.857 40.3351 124.728 40.1091 124.644 39.865C124.474 39.3424 124.474 38.7792 124.644 38.2566C124.726 38.0089 124.855 37.7797 125.025 37.5821C125.191 37.3823 125.398 37.2202 125.632 37.1065C125.887 36.9897 126.165 36.9306 126.446 36.9336C126.699 36.9326 126.95 36.9857 127.182 37.0892C127.413 37.1911 127.609 37.3597 127.745 37.5735V37.046H129.035V40.721C129.033 41.0762 128.965 41.4279 128.836 41.7587ZM127.736 39.0521C127.735 38.9194 127.712 38.7878 127.667 38.663C127.621 38.5421 127.554 38.4307 127.467 38.3344C127.382 38.2371 127.275 38.1602 127.156 38.1096C127.027 38.0537 126.889 38.0242 126.749 38.0231C126.608 38.0233 126.47 38.0527 126.342 38.1096C126.23 38.1614 126.13 38.2349 126.047 38.3258C125.96 38.4198 125.895 38.5321 125.857 38.6544C125.814 38.7826 125.794 38.9171 125.796 39.0521C125.794 39.1844 125.814 39.316 125.857 39.4413C125.895 39.5635 125.96 39.6758 126.047 39.7699C126.129 39.8659 126.229 39.9452 126.342 40.0033C126.47 40.0602 126.608 40.0897 126.749 40.0898C126.949 40.0909 127.145 40.03 127.309 39.9154C127.474 39.8009 127.599 39.6382 127.667 39.4499C127.712 39.3222 127.735 39.1877 127.736 39.0521Z" fill="white"/>
<path d="M132.447 41.1015V34.9534H133.807V41.1102L132.447 41.1015Z" fill="white"/>
<path d="M136.474 35.7575C136.477 35.8561 136.456 35.9539 136.413 36.0429C136.375 36.1309 136.319 36.2103 136.249 36.2764C136.178 36.3448 136.093 36.3984 136.001 36.434C135.909 36.4697 135.811 36.4866 135.712 36.4839C135.611 36.4872 135.51 36.4697 135.417 36.4325C135.323 36.3953 135.237 36.3392 135.166 36.2677C135.095 36.2033 135.038 36.1245 134.999 36.0366C134.96 35.9487 134.941 35.8536 134.941 35.7575C134.944 35.6595 134.964 35.5628 135.002 35.4722C135.04 35.3841 135.096 35.3047 135.166 35.2387C135.239 35.1751 135.321 35.1226 135.409 35.0831C135.504 35.0406 135.608 35.02 135.712 35.0225C135.811 35.0198 135.909 35.0368 136.001 35.0724C136.093 35.108 136.178 35.1616 136.249 35.2301C136.319 35.2961 136.375 35.3755 136.413 35.4635C136.455 35.5559 136.476 35.6563 136.474 35.7575ZM135.045 41.1015V37.046H136.379V41.1015H135.045Z" fill="white"/>
<path d="M140.12 35.9305H139.955C139.889 35.922 139.822 35.922 139.756 35.9305C139.652 35.9253 139.547 35.9461 139.453 35.991C139.376 36.033 139.313 36.096 139.271 36.1726C139.228 36.2476 139.199 36.3296 139.185 36.4147C139.176 36.5068 139.176 36.5994 139.185 36.6914V37.0979H140.094V38.1009H139.185V41.1534H137.851V38.0491H137.106V37.046H137.851V36.6828C137.85 36.4442 137.876 36.2063 137.929 35.9737C137.981 35.757 138.079 35.5538 138.215 35.3771C138.357 35.1988 138.541 35.059 138.752 34.9706C139.025 34.8549 139.321 34.8018 139.618 34.815C139.73 34.8058 139.843 34.8058 139.955 34.815C140.061 34.8251 140.165 34.8454 140.267 34.8755L140.12 35.9305Z" fill="white"/>
<path d="M144.762 39.13V39.277C144.766 39.3287 144.766 39.3808 144.762 39.4326H141.817C141.833 39.5416 141.869 39.647 141.921 39.7439C141.98 39.8383 142.056 39.9205 142.146 39.986C142.235 40.0546 142.334 40.1073 142.441 40.1417C142.552 40.1828 142.669 40.2033 142.787 40.2022C142.976 40.2072 143.164 40.1656 143.333 40.0811C143.471 40.0068 143.592 39.9036 143.688 39.7785L144.614 40.3665C144.423 40.6412 144.163 40.8617 143.861 41.0064C143.521 41.1575 143.151 41.2313 142.778 41.2226C142.484 41.2258 142.191 41.179 141.912 41.0842C141.648 40.9947 141.403 40.8536 141.194 40.6692C140.987 40.4818 140.825 40.2516 140.717 39.9947C140.592 39.7085 140.53 39.3989 140.536 39.0867C140.536 38.79 140.595 38.4963 140.709 38.222C140.809 37.9677 140.963 37.7378 141.159 37.5475C141.358 37.3556 141.594 37.2056 141.852 37.1065C142.128 37.001 142.422 36.9482 142.718 36.9509C143 36.9481 143.279 37.001 143.541 37.1065C143.786 37.1977 144.005 37.3459 144.181 37.5389C144.367 37.7392 144.511 37.9743 144.606 38.2306C144.706 38.52 144.759 38.8237 144.762 39.13ZM143.532 38.6111C143.53 38.412 143.46 38.2196 143.333 38.0663C143.255 37.9879 143.162 37.9272 143.059 37.8884C142.955 37.8496 142.845 37.8336 142.735 37.8415C142.611 37.8391 142.488 37.8596 142.371 37.902C142.269 37.9431 142.173 37.9984 142.086 38.0663C142.006 38.1359 141.941 38.2213 141.895 38.3171C141.845 38.4077 141.816 38.508 141.809 38.6111H143.532Z" fill="white"/>
<path d="M0 17.9616V20.2963H7.45631V17.9616H0ZM0 22.657V29.2721H2.70194V24.8793H7.08393V22.657H0Z" fill="white"/>
<path d="M17.9956 17.9616V24.7842C17.9931 25.0759 17.9553 25.3663 17.883 25.649C17.8133 25.9162 17.6895 26.1663 17.5193 26.384C17.3412 26.6093 17.1129 26.7899 16.8525 26.9114C16.225 27.1662 15.5228 27.1662 14.8953 26.9114C14.6389 26.7913 14.4158 26.6102 14.2458 26.384C14.072 26.1713 13.9397 25.9278 13.8561 25.6662C13.7798 25.3844 13.7419 25.0935 13.7435 24.8015V17.9616H11.0156V25.0091C11.0081 25.6446 11.1228 26.2757 11.3533 26.8682C11.5694 27.4087 11.8969 27.8977 12.3146 28.3036C12.7581 28.7183 13.283 29.0363 13.8561 29.2375C14.4998 29.4705 15.1806 29.5848 15.8652 29.5748C16.5499 29.5848 17.2306 29.4705 17.8744 29.2375C18.4475 29.0363 18.9724 28.7183 19.4159 28.3036C19.8498 27.9062 20.1874 27.4153 20.4031 26.8682C20.6366 26.2763 20.7542 25.6452 20.7495 25.0091V17.9616H17.9956Z" fill="white"/>
<path d="M23.7719 17.9616V20.2963H26.9674V29.2721H29.704V20.2963H32.9082V17.9616H23.7719Z" fill="white"/>
<path d="M42.9366 17.9616V24.7842C42.9341 25.0759 42.8963 25.3663 42.824 25.649C42.7512 25.9167 42.6245 26.1668 42.4516 26.384C42.2767 26.6089 42.0512 26.7896 41.7935 26.9114C41.4844 27.0433 41.1509 27.1082 40.8149 27.1017C40.4801 27.1145 40.1464 27.0555 39.8363 26.9287C39.5785 26.8069 39.3531 26.6262 39.1781 26.4013C39.0112 26.1816 38.8878 25.9321 38.8144 25.6662C38.7351 25.3848 38.6944 25.0939 38.6932 24.8015V17.9616H35.9566V25.0091C35.9491 25.6446 36.0638 26.2757 36.2943 26.8682C36.502 27.4089 36.824 27.8984 37.2383 28.3036C37.6721 28.7179 38.1885 29.0361 38.7538 29.2375C40.0584 29.6869 41.4761 29.6869 42.7807 29.2375C43.3529 29.0343 43.8774 28.7165 44.3222 28.3036C44.7534 27.9038 45.0906 27.4136 45.3094 26.8682C45.54 26.2757 45.6547 25.6446 45.6472 25.0091V17.9616H42.9366Z" fill="white"/>
<path d="M56.0999 24.4297C56.7786 24.245 57.3835 23.8554 57.8319 23.3142C58.2587 22.7604 58.4791 22.0756 58.4554 21.3772C58.4745 20.8133 58.3493 20.2538 58.0917 19.7516C57.8525 19.3228 57.5103 18.9603 57.0958 18.6966C56.6719 18.4208 56.1984 18.2299 55.7015 18.1345C55.1783 18.0191 54.6439 17.9611 54.1081 17.9616H49.778V29.2721H52.4627V24.7842H53.3979L55.8401 29.2721H59.0356L56.0999 24.4297ZM55.563 22.1295C55.4434 22.3072 55.2792 22.4504 55.0867 22.5446C54.8863 22.6421 54.6737 22.7119 54.4545 22.7521C54.2249 22.7832 53.9934 22.7977 53.7617 22.7954H52.4627V20.2012H53.9175C54.132 20.2053 54.3461 20.2226 54.5584 20.2531C54.7672 20.2809 54.9695 20.3453 55.1559 20.4433C55.3305 20.5311 55.4796 20.6621 55.5889 20.8238C55.7042 21.0201 55.7612 21.245 55.7535 21.4723C55.7531 21.7049 55.6871 21.9327 55.563 22.1295Z" fill="white"/>
<path d="M62.3525 17.9616V20.2963H64.9505V20.2531H69.93V17.9616H62.3525ZM64.9505 26.9374V24.5767H69.6529V22.657H62.3525V29.2721H70.2591V26.9374H64.9505Z" fill="white"/>
<path d="M79.8718 17.9616V29.2721H82.5997V17.9616H79.8718Z" fill="white"/>
<path d="M95.8582 17.9616L93.3988 25.2079H93.3382L90.7401 17.9616H86.8604V29.2721H89.4585L89.3978 21.2648L92.2557 29.2721H94.1782L97.1226 21.2648H97.1746L97.1053 29.2721H99.7812V17.9616H95.8582Z" fill="white"/>
<path d="M112.321 19.8034C112.093 19.376 111.766 19.0085 111.368 18.7312C110.947 18.4516 110.477 18.2522 109.983 18.1432C109.414 18.0189 108.833 17.958 108.251 17.9616H104.085V29.2721H106.822V25.0091H108.182C108.764 25.0105 109.345 24.9467 109.914 24.8188C110.426 24.7015 110.912 24.4936 111.351 24.2049C111.766 23.9293 112.105 23.5548 112.338 23.1153C112.6 22.5989 112.728 22.0251 112.711 21.4464C112.713 20.8757 112.579 20.3127 112.321 19.8034ZM109.766 22.1209C109.658 22.2973 109.506 22.4431 109.325 22.5446C109.13 22.6579 108.915 22.7341 108.692 22.7694C108.449 22.8121 108.203 22.8324 107.956 22.83H106.805V20.1666H108.008C108.246 20.1678 108.483 20.1823 108.718 20.2099C108.932 20.2391 109.14 20.3034 109.333 20.4001C109.509 20.4979 109.658 20.6375 109.766 20.8065C109.878 21.004 109.932 21.2286 109.922 21.4551C109.933 21.6871 109.879 21.9175 109.766 22.1209Z" fill="white"/>
<path d="M121.284 17.9616H118.643L113.888 29.2721H116.868L117.734 27.0498H122.107L122.973 29.2721H126.013L121.284 17.9616ZM118.461 24.8793L119.907 20.9968L121.319 24.8793H118.461Z" fill="white"/>
<path d="M136.621 25.917C136.374 26.2807 136.041 26.5778 135.651 26.7817C135.209 27.0047 134.718 27.1147 134.222 27.1017C133.777 27.1047 133.335 27.0194 132.923 26.8509C132.541 26.6818 132.196 26.4377 131.91 26.1332C131.619 25.8169 131.392 25.4468 131.243 25.0436C131.084 24.591 131.005 24.114 131.009 23.6342C131.004 23.1628 131.084 22.6943 131.243 22.2506C131.389 21.831 131.619 21.4455 131.919 21.1178C132.207 20.8058 132.558 20.5583 132.949 20.3914C133.36 20.2174 133.802 20.1276 134.248 20.1276C134.695 20.1276 135.136 20.2174 135.547 20.3914C135.948 20.552 136.296 20.8216 136.552 21.1697L138.414 19.3192C137.904 18.7528 137.257 18.3269 136.535 18.0826C135.778 17.8013 134.977 17.6578 134.17 17.6589C133.347 17.6528 132.528 17.7933 131.754 18.074C131.031 18.3373 130.369 18.7432 129.806 19.2673C129.244 19.7853 128.799 20.4159 128.498 21.1178C128.178 21.8966 128.019 22.7319 128.03 23.5736C128.021 24.4068 128.18 25.2333 128.498 26.0035C128.79 26.7142 129.224 27.3573 129.776 27.8929C130.327 28.4285 130.983 28.845 131.702 29.1165C132.476 29.4105 133.299 29.5571 134.127 29.5488C135.002 29.5626 135.869 29.3917 136.673 29.0473C137.39 28.7378 138.033 28.2812 138.561 27.707L136.621 25.917Z" fill="white"/>
<path d="M140.432 17.9616V20.2963H143.627V29.2721H146.355V20.2963H149.551V17.9616H140.432Z" fill="white"/>
<path d="M203.568 6.37524C203.182 6.37524 202.797 6.37524 202.411 6.37524C201.301 6.34788 200.19 6.40349 199.088 6.54162C198.408 6.61556 197.738 6.71724 197.059 6.85588C195.859 7.08794 194.675 7.39667 193.515 7.7802C193.016 7.92332 192.526 8.09302 192.046 8.28857C188.473 9.79989 185.383 12.2718 183.113 15.4335C181.852 17.2134 180.89 19.1901 180.267 21.2844C178.95 25.2414 178.728 29.4848 179.624 33.5593C179.095 28.022 180.568 22.4785 183.773 17.9467C186.977 13.4149 191.698 10.1989 197.068 8.88937C198.712 8.50892 200.393 8.3075 202.081 8.28857C203.535 8.27162 204.989 8.38608 206.423 8.63057C205.518 7.82027 204.565 7.06706 203.568 6.37524Z" fill="url(#paint0_linear_86_46)"/>
<path d="M219.616 32.8845C219.615 40.1614 216.75 47.1414 211.647 52.2951C210.713 53.2387 209.709 54.11 208.645 54.9017L208.333 55.1328C208.03 55.3546 207.718 55.5672 207.415 55.7705C206.928 56.094 206.441 56.3991 205.955 56.6948C203.192 56.5745 200.458 56.0738 197.83 55.2067L198.564 54.9479C199.014 54.7908 199.482 54.6151 199.895 54.421C200.309 54.2269 200.814 54.0143 201.254 53.7833C205.364 51.687 208.877 48.5731 211.463 44.7342C217.55 36.0087 217.945 26.553 213.942 16.7275C214.422 17.0796 214.833 17.5184 215.154 18.0216C218.069 22.4226 219.622 27.595 219.616 32.8845Z" fill="url(#paint1_linear_86_46)"/>
<path d="M196.168 58.2477C193.442 58.0378 190.796 57.2235 188.419 55.863L188.254 55.7705C187.521 55.3294 186.81 54.8512 186.124 54.3378L185.84 54.1253C184.831 53.3681 183.877 52.5404 182.984 51.6481V51.6019C179.374 47.9725 176.894 43.362 175.847 38.3351C174.8 33.3082 175.232 28.083 177.09 23.2994C176.306 27.078 176.318 30.9803 177.126 34.7538C177.935 38.5274 179.52 42.0881 181.782 45.2056C184.438 49.1698 188.044 52.3964 192.266 54.5874C192.725 54.8185 193.184 55.0403 193.671 55.2437C194.359 55.5395 195.076 55.8167 195.81 56.0571H195.957C198.239 56.7976 200.599 57.2691 202.989 57.462C200.777 58.1163 198.47 58.382 196.168 58.2477Z" fill="url(#paint2_linear_86_46)"/>
<path d="M196.021 0.727688C194.093 0.684341 192.165 0.798715 190.256 1.06968C186.795 1.57373 183.466 2.75773 180.46 4.55434C178.955 5.46528 177.536 6.51091 176.218 7.67852C167.037 15.7663 163.971 26.0077 167.11 37.8204C169.516 46.8324 175.18 53.0161 183.37 56.6856C184.169 57.0461 184.995 57.3881 185.849 57.7024C185.472 57.3604 185.087 57.0368 184.692 56.7133C183.939 56.1033 183.168 55.5025 182.415 54.8647L181.772 54.3194C178.934 51.8285 176.628 48.7821 174.996 45.3657C173.364 41.9493 172.44 38.2342 172.279 34.4466C172.026 28.1913 173.855 22.0299 177.476 16.9401C181.309 11.237 186.63 6.70836 192.854 3.85187C195.529 2.7006 198.335 1.88718 201.208 1.43017C200.74 1.44865 198.142 0.783147 196.021 0.727688Z" fill="url(#paint3_linear_86_46)"/>
<path d="M197.931 3.32501C197.508 3.43593 197.095 3.55609 196.682 3.68549C195.467 4.06386 194.28 4.52714 193.129 5.07196C192.496 5.36794 191.883 5.70446 191.293 6.07946C190.567 6.4913 189.94 7.05939 189.457 7.74322C192.898 6.32821 196.526 5.42824 200.226 5.07196C200.63 5.07196 201.025 5.00726 201.419 4.99801C200.301 4.35166 199.134 3.79236 197.931 3.32501Z" fill="url(#paint4_linear_86_46)"/>
<path d="M226.814 37.8204C224.418 46.8232 218.753 53.0068 210.591 56.6856C210.389 56.6856 210.187 56.6856 209.985 56.6856C209.783 56.6856 209.508 56.6856 209.269 56.6856L210.453 55.7613C210.821 55.4655 211.188 55.179 211.546 54.837C211.904 54.495 211.978 54.4765 212.189 54.2916C213.246 53.3644 214.231 52.357 215.136 51.2784C219.005 46.6361 221.275 40.8563 221.606 34.8054C221.937 28.7545 220.311 22.7586 216.972 17.7166C213.051 11.9118 207.831 7.11528 201.732 3.71322L201.346 3.50063C200.355 2.96453 199.326 2.50237 198.298 2.02173L196.948 1.39319C196.542 1.11331 196.101 0.88948 195.636 0.727688C201.578 0.652217 207.459 1.94198 212.831 4.49889C214.587 5.33575 216.223 6.4051 217.697 7.67852C226.841 15.757 229.954 25.9984 226.814 37.8204Z" fill="url(#paint5_linear_86_46)"/>
<defs>
<linearGradient id="paint0_linear_86_46" x1="0.218733" y1="29.4193" x2="228.077" y2="29.4193" gradientUnits="userSpaceOnUse">
<stop stop-color="#248D91"/>
<stop offset="0.14" stop-color="#249991"/>
<stop offset="0.27" stop-color="#249E91"/>
<stop offset="0.32" stop-color="#2FA48A"/>
<stop offset="0.45" stop-color="#45AF7B"/>
<stop offset="0.6" stop-color="#55B771"/>
<stop offset="0.77" stop-color="#5EBC6B"/>
<stop offset="1" stop-color="#61BD69"/>
</linearGradient>
<linearGradient id="paint1_linear_86_46" x1="-0.0960808" y1="29.4602" x2="228" y2="29.4602" gradientUnits="userSpaceOnUse">
<stop stop-color="#248D91"/>
<stop offset="0.14" stop-color="#249991"/>
<stop offset="0.27" stop-color="#249E91"/>
<stop offset="0.32" stop-color="#2FA48A"/>
<stop offset="0.45" stop-color="#45AF7B"/>
<stop offset="0.6" stop-color="#55B771"/>
<stop offset="0.77" stop-color="#5EBC6B"/>
<stop offset="1" stop-color="#61BD69"/>
</linearGradient>
<linearGradient id="paint2_linear_86_46" x1="-0.515577" y1="29.5407" x2="228" y2="29.5407" gradientUnits="userSpaceOnUse">
<stop stop-color="#248D91"/>
<stop offset="0.14" stop-color="#249991"/>
<stop offset="0.27" stop-color="#249E91"/>
<stop offset="0.32" stop-color="#2FA48A"/>
<stop offset="0.45" stop-color="#45AF7B"/>
<stop offset="0.6" stop-color="#55B771"/>
<stop offset="0.77" stop-color="#5EBC6B"/>
<stop offset="1" stop-color="#61BD69"/>
</linearGradient>
<linearGradient id="paint3_linear_86_46" x1="0.0551665" y1="29.5047" x2="228" y2="29.5047" gradientUnits="userSpaceOnUse">
<stop stop-color="#248D91"/>
<stop offset="0.14" stop-color="#249991"/>
<stop offset="0.27" stop-color="#249E91"/>
<stop offset="0.32" stop-color="#2FA48A"/>
<stop offset="0.45" stop-color="#45AF7B"/>
<stop offset="0.6" stop-color="#55B771"/>
<stop offset="0.77" stop-color="#5EBC6B"/>
<stop offset="1" stop-color="#61BD69"/>
</linearGradient>
<linearGradient id="paint4_linear_86_46" x1="1.04988" y1="29.5002" x2="228" y2="29.5002" gradientUnits="userSpaceOnUse">
<stop stop-color="#248D91"/>
<stop offset="0.14" stop-color="#249991"/>
<stop offset="0.27" stop-color="#249E91"/>
<stop offset="0.32" stop-color="#2FA48A"/>
<stop offset="0.45" stop-color="#45AF7B"/>
<stop offset="0.6" stop-color="#55B771"/>
<stop offset="0.77" stop-color="#5EBC6B"/>
<stop offset="1" stop-color="#61BD69"/>
</linearGradient>
<linearGradient id="paint5_linear_86_46" x1="195.599" y1="28.7251" x2="228.007" y2="28.7251" gradientUnits="userSpaceOnUse">
<stop stop-color="#61BD69"/>
<stop offset="0.23" stop-color="#5EBC6B"/>
<stop offset="0.4" stop-color="#55B771"/>
<stop offset="0.55" stop-color="#45AF7B"/>
<stop offset="0.68" stop-color="#2FA48A"/>
<stop offset="0.73" stop-color="#249E91"/>
<stop offset="0.86" stop-color="#249991"/>
<stop offset="1" stop-color="#248D91"/>
</linearGradient>
</defs>
</svg>
