<svg width="60" height="58" viewBox="0 0 60 58" fill="none" xmlns="http://www.w3.org/2000/svg">
<path d="M50.1868 10.9691C50.3245 10.846 50.4342 10.6949 50.5091 10.5259C50.5835 10.3569 50.6213 10.1738 50.6195 9.98908C50.6178 9.80431 50.5765 9.62209 50.4985 9.45458C50.4205 9.28708 50.3075 9.13817 50.1674 9.01782C50.0195 8.89115 49.8731 8.76511 49.7276 8.63978C48.618 7.68564 47.4706 6.69772 46.2706 5.85501C37.1022 -0.597796 27.5759 -0.634099 17.9578 2.78808C9.24946 5.8843 3.65714 12.0787 1.3338 21.1958C-1.25794 31.382 1.01159 40.3682 8.08405 47.9081C8.26803 48.1029 8.45583 48.2978 8.64335 48.4838C12.4426 52.2832 17.1746 54.6288 20.924 56.2608C22.5334 56.9639 30.7907 57.8173 33.025 57.4845C46.3024 55.5017 55.0398 48.0129 58.0832 35.4844C58.6641 33.0304 58.9535 30.5163 58.9451 27.9944C58.932 25.3459 58.4866 22.7172 57.6265 20.2122C57.5636 20.0248 57.4606 19.8536 57.324 19.7108C57.1874 19.568 57.0212 19.4571 56.8366 19.3861C56.6524 19.3151 56.4544 19.2858 56.2574 19.3002C56.0605 19.3146 55.8688 19.3723 55.6969 19.4694L55.6609 19.4899C55.3874 19.6465 55.1774 19.8943 55.0684 20.1899C54.9589 20.4855 54.9572 20.8101 55.0631 21.107C55.8395 23.2602 56.2355 25.532 56.2331 27.8209C56.2062 30.5669 55.8346 33.2985 55.1266 35.9519C53.0287 43.5765 48.0134 49.1335 39.7941 52.9347C31.4379 56.9353 19.4546 52.8906 16.2663 50.7857C12.7423 48.3765 9.65869 45.3793 7.15045 41.9251C3.21677 36.3553 2.33424 28.3501 4.44805 21.0316C5.43724 17.6526 7.16598 14.5359 9.50898 11.9078C11.852 9.27974 14.7505 7.20599 17.9943 5.83697C26.4332 2.32991 34.9007 1.71127 43.1594 6.96359C44.2666 7.66859 47.0901 9.88556 48.5171 11.0177C48.7564 11.2076 49.0553 11.3067 49.3606 11.2976C49.6662 11.2884 49.9585 11.1715 50.1861 10.9676L50.1868 10.9691Z" fill="url(#paint0_linear_1_11)"/>
<path d="M26.3395 37.0517C26.9051 36.5141 27.2158 36.242 27.5002 35.9448C36.6187 26.4184 46.6048 17.8418 56.6499 9.33155C57.0296 9.01009 57.4182 8.60001 57.8675 8.48484C58.4093 8.34642 59.2927 8.50563 59.5348 8.79981C59.694 9.01722 59.7946 9.27183 59.8267 9.53925C59.8592 9.80668 59.8221 10.0779 59.7198 10.327C59.4836 10.9461 58.9084 11.4764 58.3867 11.9399C55.2731 14.7066 52.0722 17.3779 49.0136 20.2017C42.6198 26.1067 36.2668 32.0556 29.9543 38.0484C27.1883 40.6686 26.1238 40.7748 23.5786 37.9749C21.9031 36.1312 16.8469 29.9167 15.2984 27.9587C15.0796 27.6543 14.8848 27.3335 14.7156 26.999C14.3663 26.3796 14.138 25.6971 14.8322 25.217C15.6056 24.6822 16.1544 25.2402 16.6128 25.8213C17.0767 26.4097 17.4723 27.0559 17.969 27.6134C19.511 29.3437 24.6734 35.2266 26.3395 37.0517Z" fill="url(#paint1_linear_1_11)"/>
<defs>
<linearGradient id="paint0_linear_1_11" x1="29.6208" y1="0.525513" x2="29.6208" y2="57.5587" gradientUnits="userSpaceOnUse">
<stop stop-color="#5DBB6C"/>
<stop offset="1" stop-color="#269890"/>
</linearGradient>
<linearGradient id="paint1_linear_1_11" x1="37.1098" y1="8.43429" x2="37.1098" y2="40.0442" gradientUnits="userSpaceOnUse">
<stop stop-color="#5DBB6C"/>
<stop offset="1" stop-color="#269890"/>
</linearGradient>
</defs>
</svg>
