<svg width="54" height="56" viewBox="0 0 54 56" fill="none" xmlns="http://www.w3.org/2000/svg">
<rect y="0.0625" width="54" height="55" rx="18" fill="url(#paint0_linear_86_309)"/>
<path opacity="0.5" d="M10.2775 34.3166C8.64849 32.2002 7.83398 31.142 7.83398 27.9998C7.83398 24.8577 8.64849 23.7995 10.2775 21.6831C13.5302 17.4573 18.9854 12.6665 27.0007 12.6665C35.016 12.6665 40.471 17.4573 43.7238 21.6831C45.3527 23.7995 46.1673 24.8577 46.1673 27.9998C46.1673 31.142 45.3527 32.2002 43.7238 34.3166C40.471 38.5423 35.016 43.3332 27.0007 43.3332C18.9854 43.3332 13.5302 38.5423 10.2775 34.3166Z" stroke="white" stroke-width="2"/>
<path d="M32.75 28C32.75 31.1757 30.1757 33.75 27 33.75C23.8243 33.75 21.25 31.1757 21.25 28C21.25 24.8243 23.8243 22.25 27 22.25C30.1757 22.25 32.75 24.8243 32.75 28Z" stroke="white" stroke-width="2"/>
<defs>
<linearGradient id="paint0_linear_86_309" x1="0" y1="27.5625" x2="54" y2="27.5625" gradientUnits="userSpaceOnUse">
<stop stop-color="#61BD69"/>
<stop offset="1" stop-color="#249791"/>
</linearGradient>
</defs>
</svg>
